<svg width="1332" height="271" viewBox="0 0 1332 271" fill="none" xmlns="http://www.w3.org/2000/svg">
<path d="M267.608 195.594C265.539 194.559 263.043 194.775 261.172 196.147C249.642 204.7 234.966 209.409 219.85 209.409H62.3967C42.7824 209.409 24.2151 202.908 10.1105 191.101C8.26974 189.573 5.71353 189.23 3.55457 190.24C1.38349 191.251 0 193.428 0 195.822V219.676C0 247.976 27.9925 271 62.3972 271H219.851C248.054 271 271 252.023 271 228.704V201.096C271 198.769 269.689 196.64 267.608 195.594ZM49.2726 240.205C49.2726 243.609 46.5177 246.364 43.1133 246.364C39.7089 246.364 36.9546 243.609 36.9546 240.205V227.887C36.9546 224.482 39.7094 221.727 43.1139 221.727C46.5183 221.727 49.2732 224.482 49.2732 227.887V240.205H49.2726ZM73.9092 246.364C73.9092 249.768 71.1543 252.523 67.7499 252.523C64.3454 252.523 61.5906 249.768 61.5906 246.364V234.046C61.5906 230.642 64.3454 227.887 67.7499 227.887C71.1543 227.887 73.9092 230.642 73.9092 234.046V246.364ZM98.5458 246.364C98.5458 249.768 95.7909 252.523 92.3865 252.523C88.982 252.523 86.2272 249.768 86.2272 246.364V234.046C86.2272 230.642 88.982 227.887 92.3865 227.887C95.7909 227.887 98.5458 230.642 98.5458 234.046V246.364ZM184.773 252.523C177.983 252.523 172.455 246.995 172.455 240.205C172.455 233.414 177.983 227.887 184.773 227.887C191.563 227.887 197.091 233.414 197.091 240.205C197.091 246.995 191.563 252.523 184.773 252.523ZM221.728 252.523C214.937 252.523 209.41 246.995 209.41 240.205C209.41 233.414 214.937 227.887 221.728 227.887C228.518 227.887 234.046 233.414 234.046 240.205C234.046 246.995 228.518 252.523 221.728 252.523Z" fill="white"/>
<path d="M62.397 197.091H219.851C248.055 197.091 271 178.114 271 154.795C271 154.795 270.893 104.436 270.883 104.288C270.258 86.6666 256.597 71.3628 236.596 65.6752C231.568 28.492 193.128 0 146.748 0C110.287 0 77.4341 17.99 63.4017 45.1828C63.0709 45.1706 62.7342 45.1649 62.397 45.1649C27.9929 45.1649 0.000366211 68.1893 0.000366211 96.4948C0.000366211 98.4713 0.000366211 145.767 0.000366211 145.767C0.000366211 174.066 27.9929 197.091 62.397 197.091ZM49.273 166.296C49.273 169.7 46.5181 172.455 43.1137 172.455C39.7092 172.455 36.955 169.7 36.955 166.296V153.978C36.955 150.573 39.7098 147.818 43.1142 147.818C46.5187 147.818 49.2735 150.573 49.2735 153.978V166.296H49.273ZM73.9095 172.455C73.9095 175.859 71.1547 178.614 67.7502 178.614C64.3458 178.614 61.591 175.859 61.591 172.455V160.137C61.591 156.732 64.3458 153.978 67.7502 153.978C71.1547 153.978 73.9095 156.732 73.9095 160.137V172.455ZM98.5461 172.455C98.5461 175.859 95.7913 178.614 92.3868 178.614C88.9824 178.614 86.2275 175.859 86.2275 172.455V160.137C86.2275 156.732 88.9824 153.978 92.3868 153.978C95.7913 153.978 98.5461 156.732 98.5461 160.137V172.455ZM184.773 178.614C177.983 178.614 172.455 173.086 172.455 166.296C172.455 159.505 177.983 153.978 184.773 153.978C191.564 153.978 197.091 159.505 197.091 166.296C197.091 173.086 191.564 178.614 184.773 178.614ZM221.728 178.614C214.937 178.614 209.41 173.086 209.41 166.296C209.41 159.505 214.937 153.978 221.728 153.978C228.518 153.978 234.046 159.505 234.046 166.296C234.046 173.086 228.518 178.614 221.728 178.614ZM62.397 69.8009L64.0629 69.9273C64.0629 69.9273 66.8056 70.1259 67.1544 70.1259C74.5164 70.1259 81.1688 65.759 84.098 58.9986C93.0179 38.4461 118.19 24.6366 146.748 24.6366C182.006 24.6366 210.865 45.3213 212.453 71.726C212.946 80.0563 219.009 87.0517 227.207 88.7239C238.304 90.9857 246.364 98.0526 246.364 105.529C246.364 114.93 233.974 123.182 219.851 123.182H62.397C41.9288 123.182 24.6364 110.96 24.6364 96.4948C24.6369 82.023 41.9294 69.8009 62.397 69.8009Z" fill="white"/>
<path d="M371.304 49.2H364.968V150H375.048V98.736L374.76 68.928L439.992 150H446.04V49.2H435.96V97.584L436.536 130.992L371.304 49.2ZM555.744 150H566.4L521.184 49.2H511.104L465.888 150H476.544L486.912 126.672H545.376L555.744 150ZM516.144 60.144L541.344 117.456H490.944L516.144 60.144ZM674.578 150H684.658V49.2H671.986L635.554 104.784L598.69 49.2C594.082 49.2 590.914 49.2 586.306 49.2V150H596.386V63.312L634.114 119.328H636.994L674.578 64.032V150ZM801.723 49.2H790.491L753.627 139.2L716.187 49.2H705.099L748.011 150.288H759.243L801.723 49.2ZM891.101 49.2V110.688C891.101 131.712 876.701 141.648 861.437 141.648C844.301 141.648 831.197 129.84 831.197 110.688V49.2H821.117V110.688C821.117 137.904 839.549 151.008 861.437 151.008C883.325 151.008 901.181 137.904 901.181 110.688V49.2H891.101ZM927.155 49.2V150H1003.91V125.808H955.667V49.2H927.155ZM1095.51 150H1126.04L1080.96 49.2H1052.16L1006.95 150H1037.19L1043.81 133.44H1088.88L1095.51 150ZM1079.24 109.536H1053.46L1066.42 77.424L1079.24 109.536ZM1165.04 108.672H1189.09C1196.15 108.672 1199.75 112.848 1199.75 118.32C1199.75 123.936 1196.29 127.824 1189.09 127.824H1165.04V108.672ZM1165.04 72.24H1188.08C1193.7 72.24 1196.87 75.696 1196.87 80.16C1196.87 84.624 1193.7 87.648 1187.79 87.648H1165.04V72.24ZM1136.96 49.2V150H1188.95C1207.38 149.856 1227.97 143.088 1227.97 120.48C1227.97 111.408 1223.36 102.048 1214 97.008C1222.79 92.976 1225.09 85.056 1225.09 77.424C1225.09 58.128 1208.67 49.2 1188.51 49.2H1136.96ZM1322.47 59.136C1311.67 50.64 1299.86 47.184 1284.74 47.184C1263.43 47.184 1242.55 56.4 1242.55 77.712C1242.55 102.768 1261.56 108.384 1283.59 110.4C1294.68 111.408 1300.44 114.576 1300.44 119.616C1300.44 125.232 1293.96 128.544 1284.6 128.544C1276.1 128.544 1265.02 126.816 1255.08 117.168L1239.38 135.168C1253.35 149.856 1266.31 153.024 1284.46 152.88C1307.06 152.736 1328.66 142.944 1328.66 120.048C1328.66 96.864 1307.78 88.8 1287.77 86.64C1277.83 85.632 1271.06 84.624 1271.06 77.712C1271.06 72.384 1277.83 70.224 1284.74 70.224C1293.53 70.224 1301.45 71.952 1308.36 77.136L1322.47 59.136Z" fill="white"/>
<path d="M375.844 215H381.72V183.852H393.628V178.6C383.176 178.6 374.336 178.6 363.884 178.6V183.852H375.844V215ZM399.215 178.6V215H404.571V201.636C404.571 197.424 407.483 193.992 411.643 193.992C415.595 193.992 418.091 196.384 418.091 201.22V215H423.447V201.168C423.447 193.836 420.119 189 412.891 189C409.823 189 406.807 190.04 404.571 193.16V178.6H399.215ZM456.188 204.184C457.176 193.732 451.56 188.688 443.292 188.688C435.284 188.688 429.824 194.252 429.824 202.052C429.824 210.268 435.232 215.624 443.656 215.624C447.608 215.624 452.028 214.168 454.68 211.256L451.196 207.876C449.636 209.644 446.36 210.632 443.76 210.632C439.08 210.632 435.856 208.084 435.388 204.184H456.188ZM435.492 199.66C436.324 195.604 439.548 193.472 443.448 193.472C447.764 193.472 450.728 195.604 451.04 199.66H435.492ZM476.887 178.652V215H482.243V178.652H476.887ZM502.366 188.844C494.41 188.844 489.158 194.668 489.158 202.208C489.158 209.8 494.358 215.52 502.366 215.52C510.426 215.52 515.678 209.8 515.678 202.208C515.678 194.668 510.27 188.844 502.366 188.844ZM502.366 193.784C507.046 193.784 510.27 197.684 510.27 202.208C510.27 206.784 507.306 210.528 502.366 210.528C497.478 210.528 494.514 206.784 494.514 202.208C494.514 197.684 497.478 193.784 502.366 193.784ZM537.688 189.312L531.552 209.488L525.208 189.312H519.176L528.224 215.104H534.464L537.48 206.576L540.028 197.632L542.524 206.576L545.54 215.104H551.78L560.776 189.312H554.796L548.452 209.488L542.316 189.312H537.688ZM590.728 204.184C591.716 193.732 586.1 188.688 577.832 188.688C569.824 188.688 564.364 194.252 564.364 202.052C564.364 210.268 569.772 215.624 578.196 215.624C582.148 215.624 586.568 214.168 589.22 211.256L585.736 207.876C584.176 209.644 580.9 210.632 578.3 210.632C573.62 210.632 570.396 208.084 569.928 204.184H590.728ZM570.032 199.66C570.864 195.604 574.088 193.472 577.988 193.472C582.304 193.472 585.268 195.604 585.58 199.66H570.032ZM616.626 192.12C613.766 189.572 610.698 188.688 606.746 188.688C601.962 188.688 596.086 190.82 596.086 196.488C596.138 202.156 601.702 203.716 606.538 204.184C610.334 204.548 612.518 205.432 612.466 207.72C612.414 210.112 609.554 211.048 607.006 211.048C603.99 210.996 600.402 209.904 598.01 207.252L595.202 211.048C598.582 214.844 602.742 215.78 606.902 215.78C613.558 215.78 617.77 212.452 617.822 207.668C617.874 201.064 611.686 200.024 606.954 199.608C603.678 199.296 601.442 198.464 601.39 196.332C601.39 194.304 603.574 193.212 606.85 193.264C609.398 193.264 611.582 193.784 613.61 195.656L616.626 192.12ZM627.079 182.552V189.416H622.139V194.044H627.079V206.264C627.079 212.296 630.251 215.468 635.815 215.312C637.635 215.312 639.195 214.948 640.963 214.168L639.403 209.592C638.363 210.112 637.167 210.476 636.127 210.476C633.631 210.476 632.435 208.968 632.435 206.264V194.044H639.975V189.416H632.487V181.98L627.079 182.552ZM646.175 202.364H665.103V197.528H646.175V202.364ZM697.974 204.184C698.962 193.732 693.346 188.688 685.078 188.688C677.07 188.688 671.61 194.252 671.61 202.052C671.61 210.268 677.018 215.624 685.442 215.624C689.394 215.624 693.814 214.168 696.466 211.256L692.982 207.876C691.422 209.644 688.146 210.632 685.546 210.632C680.866 210.632 677.642 208.084 677.174 204.184H697.974ZM677.278 199.66C678.11 195.604 681.334 193.472 685.234 193.472C689.55 193.472 692.514 195.604 692.826 199.66H677.278ZM729.331 215V201.22C729.331 193.368 724.547 188.948 718.307 188.948C714.979 188.948 712.119 190.3 709.675 193.056L709.363 189.312H704.475V215H709.831V201.584C709.831 197.372 712.743 193.888 717.007 193.888C721.427 193.888 723.923 196.852 723.923 201.272V215H729.331ZM749.162 193.836C753.634 193.836 757.326 197.216 757.326 202.156C757.326 207.2 753.634 210.528 749.162 210.528C744.638 210.528 741.05 207.304 741.05 202.156C741.05 196.904 744.638 193.836 749.162 193.836ZM757.69 178.652V193.368C756.026 190.352 751.814 188.792 748.694 188.792C741.258 188.792 735.694 193.42 735.694 202.156C735.694 210.632 741.362 215.52 748.798 215.52C752.23 215.52 755.662 214.22 757.69 210.944L758.002 215H763.046V178.652H757.69ZM804.738 192.12C801.878 189.572 798.81 188.688 794.858 188.688C790.074 188.688 784.198 190.82 784.198 196.488C784.25 202.156 789.814 203.716 794.65 204.184C798.446 204.548 800.63 205.432 800.578 207.72C800.526 210.112 797.666 211.048 795.118 211.048C792.102 210.996 788.514 209.904 786.122 207.252L783.314 211.048C786.694 214.844 790.854 215.78 795.014 215.78C801.67 215.78 805.882 212.452 805.934 207.668C805.986 201.064 799.798 200.024 795.066 199.608C791.79 199.296 789.554 198.464 789.502 196.332C789.502 194.304 791.686 193.212 794.962 193.264C797.51 193.264 799.694 193.784 801.722 195.656L804.738 192.12ZM837.135 204.184C838.123 193.732 832.507 188.688 824.239 188.688C816.231 188.688 810.771 194.252 810.771 202.052C810.771 210.268 816.179 215.624 824.603 215.624C828.555 215.624 832.975 214.168 835.627 211.256L832.143 207.876C830.583 209.644 827.307 210.632 824.707 210.632C820.027 210.632 816.803 208.084 816.335 204.184H837.135ZM816.439 199.66C817.271 195.604 820.495 193.472 824.395 193.472C828.711 193.472 831.675 195.604 831.987 199.66H816.439ZM843.636 189.364V215H848.992V201.116C848.992 196.384 852.216 194.096 855.908 194.096C857.884 194.096 859.132 194.616 860.432 195.656L862.876 190.976C861.42 189.676 859.028 188.792 856.532 188.792C853.776 188.792 850.864 189.468 848.992 192.744L848.628 189.364H843.636ZM886.663 189.312L882.815 198.62L878.759 209.488L874.235 197.58L870.803 189.312H864.875L875.795 215.104H881.671L892.539 189.312H886.663ZM921.962 204.184C922.95 193.732 917.334 188.688 909.066 188.688C901.058 188.688 895.598 194.252 895.598 202.052C895.598 210.268 901.006 215.624 909.43 215.624C913.382 215.624 917.802 214.168 920.454 211.256L916.97 207.876C915.41 209.644 912.134 210.632 909.534 210.632C904.854 210.632 901.63 208.084 901.162 204.184H921.962ZM901.266 199.66C902.098 195.604 905.322 193.472 909.222 193.472C913.538 193.472 916.502 195.604 916.814 199.66H901.266ZM928.463 189.364V215H933.819V201.116C933.819 196.384 937.043 194.096 940.735 194.096C942.711 194.096 943.959 194.616 945.259 195.656L947.703 190.976C946.247 189.676 943.855 188.792 941.359 188.792C938.603 188.792 935.691 189.468 933.819 192.744L933.455 189.364H928.463ZM982.318 189.364L977.222 201.584L974.466 208.76L971.918 201.48L967.498 189.364H961.258L971.502 214.636L966.198 226.908H972.126L988.298 189.364H982.318ZM1004.37 188.844C996.415 188.844 991.163 194.668 991.163 202.208C991.163 209.8 996.363 215.52 1004.37 215.52C1012.43 215.52 1017.68 209.8 1017.68 202.208C1017.68 194.668 1012.27 188.844 1004.37 188.844ZM1004.37 193.784C1009.05 193.784 1012.27 197.684 1012.27 202.208C1012.27 206.784 1009.31 210.528 1004.37 210.528C999.483 210.528 996.519 206.784 996.519 202.208C996.519 197.684 999.483 193.784 1004.37 193.784ZM1023.97 189.364V203.144C1023.97 210.892 1028.49 215.416 1034.79 215.416C1038.37 215.416 1041.13 214.116 1043.63 211.256L1043.94 215.052H1048.77V189.364H1043.42V202.728C1043.42 206.992 1040.51 210.476 1036.29 210.476C1031.82 210.476 1029.33 207.46 1029.33 203.092V189.364H1023.97ZM1056.18 189.572H1060.49L1064.29 178.6H1058.67L1056.18 189.572ZM1070.95 178.652V215H1076.31V178.652H1070.95ZM1085.05 178.652V215H1090.4V178.652H1085.05ZM1137.72 204.184C1138.71 193.732 1133.09 188.688 1124.83 188.688C1116.82 188.688 1111.36 194.252 1111.36 202.052C1111.36 210.268 1116.77 215.624 1125.19 215.624C1129.14 215.624 1133.56 214.168 1136.21 211.256L1132.73 207.876C1131.17 209.644 1127.89 210.632 1125.29 210.632C1120.61 210.632 1117.39 208.084 1116.92 204.184H1137.72ZM1117.03 199.66C1117.86 195.604 1121.08 193.472 1124.98 193.472C1129.3 193.472 1132.26 195.604 1132.57 199.66H1117.03ZM1162.49 189.312L1158.65 198.62L1154.59 209.488L1150.07 197.58L1146.63 189.312H1140.71L1151.63 215.104H1157.5L1168.37 189.312H1162.49ZM1197.79 204.184C1198.78 193.732 1193.17 188.688 1184.9 188.688C1176.89 188.688 1171.43 194.252 1171.43 202.052C1171.43 210.268 1176.84 215.624 1185.26 215.624C1189.21 215.624 1193.63 214.168 1196.29 211.256L1192.8 207.876C1191.24 209.644 1187.97 210.632 1185.37 210.632C1180.69 210.632 1177.46 208.084 1176.99 204.184H1197.79ZM1177.1 199.66C1177.93 195.604 1181.15 193.472 1185.05 193.472C1189.37 193.472 1192.33 195.604 1192.65 199.66H1177.1ZM1204.3 189.364V215H1209.65V201.116C1209.65 196.384 1212.88 194.096 1216.57 194.096C1218.54 194.096 1219.79 194.616 1221.09 195.656L1223.54 190.976C1222.08 189.676 1219.69 188.792 1217.19 188.792C1214.44 188.792 1211.52 189.468 1209.65 192.744L1209.29 189.364H1204.3ZM1260.35 192.12C1257.49 189.572 1254.43 188.688 1250.47 188.688C1245.69 188.688 1239.81 190.82 1239.81 196.488C1239.87 202.156 1245.43 203.716 1250.27 204.184C1254.06 204.548 1256.25 205.432 1256.19 207.72C1256.14 210.112 1253.28 211.048 1250.73 211.048C1247.72 210.996 1244.13 209.904 1241.74 207.252L1238.93 211.048C1242.31 214.844 1246.47 215.78 1250.63 215.78C1257.29 215.78 1261.5 212.452 1261.55 207.668C1261.6 201.064 1255.41 200.024 1250.68 199.608C1247.41 199.296 1245.17 198.464 1245.12 196.332C1245.12 194.304 1247.3 193.212 1250.58 193.264C1253.13 193.264 1255.31 193.784 1257.34 195.656L1260.35 192.12ZM1292.75 204.184C1293.74 193.732 1288.12 188.688 1279.85 188.688C1271.85 188.688 1266.39 194.252 1266.39 202.052C1266.39 210.268 1271.79 215.624 1280.22 215.624C1284.17 215.624 1288.59 214.168 1291.24 211.256L1287.76 207.876C1286.2 209.644 1282.92 210.632 1280.32 210.632C1275.64 210.632 1272.42 208.084 1271.95 204.184H1292.75ZM1272.05 199.66C1272.89 195.604 1276.11 193.472 1280.01 193.472C1284.33 193.472 1287.29 195.604 1287.6 199.66H1272.05ZM1324.06 204.184C1325.04 193.732 1319.43 188.688 1311.16 188.688C1303.15 188.688 1297.69 194.252 1297.69 202.052C1297.69 210.268 1303.1 215.624 1311.52 215.624C1315.48 215.624 1319.9 214.168 1322.55 211.256L1319.06 207.876C1317.5 209.644 1314.23 210.632 1311.63 210.632C1306.95 210.632 1303.72 208.084 1303.26 204.184H1324.06ZM1303.36 199.66C1304.19 195.604 1307.42 193.472 1311.32 193.472C1315.63 193.472 1318.6 195.604 1318.91 199.66H1303.36Z" fill="white"/>
</svg>
