<svg width="330" height="330" viewBox="0 0 330 330" fill="none" xmlns="http://www.w3.org/2000/svg">
<path d="M68.7717 118.659C72.3482 119.027 75.7768 120.511 78.5411 122.794C81.9134 125.576 84.2221 129.619 84.919 133.953C85.6691 138.348 84.7381 143.024 82.3284 146.796C81.0074 148.807 79.3605 150.607 77.5014 152.127C74.4491 154.435 70.5704 155.845 66.7353 155.429C65.1704 155.277 63.6121 154.682 62.4821 153.569C61.6874 152.696 61.2654 151.513 61.1919 150.339C61.1432 148.469 61.8809 146.65 62.8994 145.109C65.1258 145.91 67.6997 146.389 69.9629 145.417C72.0677 144.553 73.7499 142.808 74.7376 140.77C75.7232 138.733 75.9024 136.311 75.1696 134.174C74.3206 131.575 72.1711 129.484 69.5971 128.615C67.5305 127.886 65.179 127.974 63.177 128.897C60.8232 129.941 59.0156 132.088 58.2832 134.551C57.6125 136.772 57.8111 139.118 57.9933 141.388C58.58 148.336 59.188 155.28 59.7747 162.228C56.4684 160.324 53.1693 158.405 49.8582 156.51C49.4416 151.7 49.0298 146.892 48.6124 142.084C48.2874 138.744 48.2294 135.318 49.0843 132.04C50.1132 128.048 52.6327 124.483 55.9634 122.076C59.6306 119.411 64.2867 118.163 68.7717 118.659Z" fill="white"/>
<path d="M104.749 132.377C101.993 132.377 99.714 133.331 98.177 134.974V126.123C98.177 123.579 96.428 121.83 93.8839 121.83C91.3929 121.83 89.6439 123.579 89.6439 126.123V154.531C89.6439 157.075 91.3929 158.824 93.9369 158.824C96.428 158.824 98.177 157.075 98.177 154.531V144.567C98.177 142.023 99.661 140.38 101.94 140.38C104.166 140.38 105.65 142.023 105.65 144.567V154.531C105.65 157.075 107.399 158.824 109.943 158.824C112.434 158.824 114.183 157.075 114.183 154.531V143.401C114.183 136.511 110.526 132.377 104.749 132.377Z" fill="white"/>
<path d="M124.266 121.3C121.616 121.3 119.496 123.473 119.496 126.123C119.496 128.773 121.616 130.893 124.266 130.893C126.916 130.893 129.089 128.773 129.089 126.123C129.089 123.473 126.916 121.3 124.266 121.3ZM128.559 154.531V137.2C128.559 134.656 126.81 132.907 124.266 132.907C121.775 132.907 120.026 134.656 120.026 137.2V154.531C120.026 157.075 121.775 158.824 124.319 158.824C126.81 158.824 128.559 157.075 128.559 154.531Z" fill="white"/>
<path d="M165.208 132.377C161.233 132.377 158.742 134.444 157.205 136.405C155.615 133.808 152.912 132.377 149.52 132.377C146.605 132.377 144.22 133.596 142.683 135.61C142.153 133.967 140.616 132.907 138.655 132.907C136.164 132.907 134.415 134.656 134.415 137.2V154.531C134.415 157.075 136.164 158.824 138.708 158.824C141.199 158.824 142.948 157.075 142.948 154.531V144.567C142.948 142.023 144.432 140.38 146.711 140.38C148.937 140.38 150.421 142.023 150.421 144.567V154.531C150.421 157.075 152.17 158.824 154.714 158.824C157.205 158.824 158.954 157.075 158.954 154.531V144.567C158.954 142.023 160.438 140.38 162.717 140.38C164.943 140.38 166.427 142.023 166.427 144.567V154.531C166.427 157.075 168.176 158.824 170.72 158.824C173.211 158.824 174.96 157.075 174.96 154.531V143.401C174.96 136.299 171.091 132.377 165.208 132.377Z" fill="white"/>
<rect x="179.848" y="112.552" width="101.856" height="57.0639" rx="10.3057" fill="url(#paint0_linear)"/>
<path d="M208.819 135.466C206.646 133.293 203.73 132.074 200.656 132.074C199.543 132.074 198.43 132.233 197.37 132.551V127.781C197.37 125.502 195.515 123.594 193.236 123.594C190.904 123.594 189.049 125.502 189.049 127.781V154.387C189.049 156.719 190.904 158.574 193.236 158.574C195.515 158.574 197.37 156.719 197.37 154.387V143.681C197.37 141.879 198.854 140.448 200.656 140.448C202.458 140.448 203.942 141.879 203.942 143.681V154.387C203.942 156.719 205.745 158.574 208.077 158.574C210.409 158.574 212.264 156.719 212.264 154.387V143.681C212.264 140.607 211.098 137.639 208.819 135.466Z" fill="white"/>
<path d="M229.186 158.574C226.059 158.574 223.144 157.355 220.971 155.182C218.798 152.956 217.579 150.041 217.579 146.967V136.261C217.579 133.929 219.434 132.074 221.713 132.074C224.045 132.074 225.9 133.929 225.9 136.261V146.967C225.9 148.769 227.384 150.253 229.186 150.253C230.988 150.253 232.419 148.769 232.419 146.967V136.261C232.419 133.929 234.327 132.074 236.606 132.074C238.885 132.074 240.793 133.929 240.793 136.261V146.967C240.793 150.041 239.574 152.956 237.348 155.182C235.175 157.355 232.26 158.574 229.186 158.574Z" fill="white"/>
<path d="M259.305 132.074C257.556 132.074 255.913 132.445 254.429 133.028V127.94C254.429 125.661 252.574 123.806 250.242 123.806C247.963 123.806 246.108 125.661 246.108 127.94V139.388V145.165C246.108 145.218 246.108 145.271 246.108 145.324V145.43V154.864C246.108 156.878 247.698 158.521 249.765 158.521C251.037 158.521 252.203 157.885 252.839 156.825C254.747 157.885 256.92 158.521 259.305 158.521C266.619 158.521 272.502 152.585 272.502 145.324C272.502 138.01 266.619 132.074 259.305 132.074ZM262.803 148.769C261.849 149.723 260.63 150.253 259.305 150.253C257.98 150.253 256.761 149.723 255.807 148.769C254.906 147.868 254.376 146.596 254.376 145.324C254.376 143.999 254.906 142.727 255.807 141.826C256.761 140.872 257.98 140.342 259.305 140.342C260.63 140.342 261.849 140.872 262.803 141.826C263.704 142.727 264.234 143.999 264.234 145.324C264.234 146.596 263.704 147.868 262.803 148.769Z" fill="white"/>
<path d="M84.7528 209.976C84.0731 209.976 83.4403 209.672 82.8543 209.062C82.2918 208.476 81.8231 207.621 81.4481 206.496C81.0965 205.394 80.8387 204.035 80.6747 202.418C80.534 200.777 80.5458 198.914 80.7098 196.828C80.8036 195.445 80.9911 194.039 81.2723 192.609C81.5536 191.156 81.87 189.761 82.2215 188.425C82.5731 187.066 82.9481 185.789 83.3465 184.593C83.745 183.398 84.1083 182.343 84.4364 181.429C84.7879 180.492 85.0692 179.742 85.2801 179.179C85.5145 178.617 85.6551 178.289 85.702 178.195C85.7723 178.078 85.9012 177.961 86.0887 177.843C86.2997 177.703 86.534 177.586 86.7918 177.492C87.0731 177.398 87.3661 177.328 87.6708 177.281C87.9989 177.211 88.3036 177.175 88.5848 177.175C88.8192 177.175 89.0418 177.187 89.2528 177.211C89.4403 177.234 89.6278 177.269 89.8153 177.316C90.0028 177.363 90.1668 177.433 90.3075 177.527C90.0497 177.691 89.7918 177.949 89.534 178.3C89.2997 178.629 89.077 178.98 88.8661 179.355C88.6083 179.777 88.3739 180.234 88.1629 180.726C87.6942 181.711 87.202 182.906 86.6864 184.312C86.1708 185.718 85.6786 187.218 85.2098 188.812C84.7645 190.382 84.3661 191.988 84.0145 193.629C83.6864 195.246 83.4637 196.769 83.3465 198.199C83.159 201.082 83.2645 203.226 83.6629 204.632C84.0614 206.062 84.6239 206.777 85.3504 206.777C85.702 206.777 86.077 206.554 86.4754 206.109C86.8739 205.664 87.2723 205.089 87.6708 204.386C88.0926 203.683 88.5028 202.898 88.9012 202.031C89.2997 201.164 89.6747 200.308 90.0262 199.464C90.2372 198.925 90.4598 198.328 90.6942 197.672C90.952 196.992 91.1981 196.3 91.4325 195.597C91.6903 194.894 91.9364 194.203 92.1708 193.523C92.4051 192.82 92.6161 192.187 92.8036 191.625C92.8036 190.922 92.8153 190.183 92.8387 189.41C92.8622 188.613 92.909 187.816 92.9793 187.019C93.0731 186.199 93.1903 185.402 93.3309 184.629C93.4715 183.832 93.659 183.105 93.8934 182.449C94.3622 181.183 94.9129 180.257 95.5458 179.672C96.1786 179.062 96.7293 178.746 97.1981 178.722C97.5262 178.722 97.7606 178.863 97.9012 179.144C98.0418 179.425 98.1004 179.8 98.077 180.269C98.0301 180.879 97.9247 181.617 97.7606 182.484C97.5965 183.328 97.3973 184.242 97.1629 185.226C96.952 186.187 96.7059 187.172 96.4247 188.179C96.1434 189.164 95.8739 190.113 95.6161 191.027C95.1942 193.441 94.9364 195.632 94.8426 197.601C94.7489 199.547 94.7606 201.222 94.8778 202.629C95.0184 204.011 95.2411 205.078 95.5458 205.828C95.8739 206.601 96.2606 206.988 96.7059 206.988C97.2215 206.988 97.7606 206.636 98.3231 205.933C98.909 205.23 99.4832 204.304 100.046 203.156C100.608 201.984 101.147 200.66 101.663 199.183C102.202 197.707 102.682 196.195 103.104 194.648C103.55 193.078 103.913 191.543 104.194 190.043C104.475 188.519 104.663 187.148 104.757 185.929C104.827 184.922 104.862 183.925 104.862 182.941C104.862 182.097 104.827 181.195 104.757 180.234C104.686 179.273 104.557 178.406 104.37 177.632C104.675 177.375 105.085 177.164 105.6 177C105.858 176.906 106.139 176.824 106.444 176.754C106.632 176.707 106.831 176.672 107.042 176.648C107.229 176.625 107.417 176.613 107.604 176.613C107.792 176.589 107.968 176.601 108.132 176.648C108.272 176.976 108.366 177.398 108.413 177.914C108.483 178.429 108.53 178.933 108.554 179.425C108.577 180.011 108.565 180.621 108.518 181.254C108.331 183.738 108.003 186.175 107.534 188.566C107.089 190.957 106.538 193.23 105.882 195.386C105.225 197.519 104.487 199.488 103.667 201.293C102.87 203.074 102.038 204.621 101.171 205.933C100.327 207.246 99.4715 208.265 98.6043 208.992C97.7606 209.718 96.952 210.082 96.1786 210.082C95.3583 210.082 94.702 209.73 94.2098 209.027C93.7176 208.347 93.3426 207.48 93.0848 206.425C92.827 205.394 92.6629 204.281 92.5926 203.086C92.5223 201.89 92.4989 200.789 92.5223 199.781C91.9833 201.093 91.3973 202.359 90.7645 203.578C90.1551 204.797 89.5106 205.875 88.8309 206.812C88.1747 207.773 87.495 208.535 86.7918 209.097C86.1122 209.683 85.4325 209.976 84.7528 209.976Z" fill="white"/>
<path d="M127.151 196.265C126.823 196.734 126.401 197.32 125.886 198.023C125.37 198.703 124.831 199.394 124.268 200.097C123.729 200.777 123.19 201.41 122.651 201.996C122.136 202.558 121.702 202.957 121.35 203.191C121.116 203.332 120.847 203.449 120.542 203.543C120.237 203.636 119.921 203.695 119.593 203.718C119.288 203.742 118.995 203.718 118.714 203.648C118.432 203.601 118.186 203.507 117.975 203.367C117.764 203.203 117.589 202.968 117.448 202.664C117.331 202.406 117.214 202.066 117.097 201.644C117.003 201.222 116.968 200.695 116.991 200.062C116.429 201 115.807 201.726 115.128 202.242C114.448 202.734 113.804 203.097 113.194 203.332C112.491 203.589 111.788 203.742 111.085 203.789C110.757 203.789 110.405 203.672 110.03 203.437C109.655 203.226 109.339 202.886 109.081 202.418C108.823 201.925 108.659 201.304 108.589 200.554C108.518 199.781 108.612 198.867 108.87 197.812C109.198 196.382 109.714 195.082 110.417 193.91C111.143 192.738 111.929 191.742 112.772 190.922C113.616 190.078 114.448 189.445 115.268 189.023C116.089 188.601 116.768 188.414 117.307 188.461C117.94 188.578 118.456 188.765 118.854 189.023C119.182 189.257 119.393 189.609 119.487 190.078C119.604 190.523 119.417 191.121 118.925 191.871C119.253 191.8 119.522 191.754 119.733 191.73C119.968 191.707 120.143 191.695 120.261 191.695C120.401 191.695 120.495 191.707 120.542 191.73C120.565 191.777 120.577 191.882 120.577 192.047C120.577 192.187 120.542 192.457 120.472 192.855C120.401 193.254 120.296 193.793 120.155 194.472C120.014 195.152 119.827 196.031 119.593 197.109C119.546 197.32 119.499 197.519 119.452 197.707C119.429 197.871 119.393 198.047 119.347 198.234C119.323 198.398 119.288 198.597 119.241 198.832C119.194 199.066 119.136 199.359 119.065 199.711C119.042 199.922 119.03 200.156 119.03 200.414C119.054 200.648 119.1 200.871 119.171 201.082C119.241 201.293 119.347 201.468 119.487 201.609C119.651 201.726 119.874 201.785 120.155 201.785C120.389 201.785 120.694 201.644 121.069 201.363C121.444 201.058 121.843 200.683 122.264 200.238C122.686 199.769 123.12 199.265 123.565 198.726C124.034 198.164 124.468 197.625 124.866 197.109C125.264 196.593 125.616 196.136 125.921 195.738C126.249 195.339 126.483 195.047 126.624 194.859C126.811 194.648 126.999 194.531 127.186 194.507C127.374 194.461 127.514 194.507 127.608 194.648C127.702 194.789 127.714 195 127.643 195.281C127.597 195.562 127.432 195.89 127.151 196.265ZM116.85 197.812C116.968 197.343 117.108 196.793 117.272 196.16C117.436 195.527 117.577 194.918 117.694 194.332C117.811 193.746 117.893 193.265 117.94 192.89C118.011 192.492 117.999 192.304 117.905 192.328C117.788 192.351 117.659 192.386 117.518 192.433C117.401 192.48 117.249 192.515 117.061 192.539C116.874 192.562 116.686 192.597 116.499 192.644C116.686 192.269 116.792 191.964 116.815 191.73C116.862 191.472 116.874 191.273 116.85 191.132C116.827 190.968 116.78 190.839 116.71 190.746C116.452 190.535 115.995 190.711 115.339 191.273C114.706 191.812 113.968 192.82 113.124 194.297C112.772 194.906 112.491 195.562 112.28 196.265C112.069 196.945 111.917 197.589 111.823 198.199C111.753 198.808 111.741 199.347 111.788 199.816C111.835 200.261 111.929 200.554 112.069 200.695C112.327 200.953 112.62 201.082 112.948 201.082C113.276 201.058 113.604 200.964 113.932 200.8C114.284 200.613 114.624 200.379 114.952 200.097C115.304 199.816 115.608 199.523 115.866 199.218C116.147 198.914 116.37 198.632 116.534 198.375C116.722 198.117 116.827 197.929 116.85 197.812Z" fill="white"/>
<path d="M137.768 194.367C137.862 194.226 137.979 194.144 138.12 194.121C138.284 194.074 138.413 194.086 138.507 194.156C138.6 194.226 138.647 194.343 138.647 194.507C138.671 194.672 138.612 194.894 138.472 195.175C138.003 196.066 137.382 197.027 136.608 198.058C135.858 199.089 135.061 200.062 134.218 200.976C133.374 201.867 132.554 202.605 131.757 203.191C130.96 203.777 130.292 204.07 129.753 204.07C128.979 204.07 128.335 203.918 127.819 203.613C127.304 203.308 126.893 202.933 126.589 202.488C126.307 202.043 126.108 201.562 125.991 201.047C125.874 200.507 125.839 200.015 125.886 199.57C125.909 199.195 125.991 198.527 126.132 197.566C126.272 196.582 126.46 195.457 126.694 194.191C126.929 192.902 127.186 191.531 127.468 190.078C127.772 188.601 128.089 187.183 128.417 185.824C128.018 185.871 127.62 185.918 127.222 185.964C126.823 186.011 126.46 186.035 126.132 186.035C125.382 186.035 124.679 185.953 124.022 185.789C123.343 185.601 122.839 185.425 122.511 185.261C122.323 185.168 122.241 185.039 122.264 184.875C122.288 184.687 122.358 184.511 122.475 184.347C122.593 184.16 122.745 184.007 122.932 183.89C123.097 183.75 123.249 183.679 123.389 183.679C123.835 183.726 124.315 183.773 124.831 183.82C125.347 183.843 125.909 183.843 126.518 183.82C126.964 183.797 127.386 183.761 127.784 183.714C128.206 183.668 128.616 183.609 129.014 183.539C129.319 182.414 129.612 181.441 129.893 180.621C130.198 179.777 130.468 179.191 130.702 178.863C130.772 178.746 130.925 178.652 131.159 178.582C131.417 178.488 131.686 178.429 131.968 178.406C132.249 178.359 132.518 178.359 132.776 178.406C133.034 178.429 133.222 178.511 133.339 178.652C133.456 178.839 133.503 179.32 133.479 180.093C133.456 180.867 133.327 181.851 133.093 183.047C134.077 183.047 134.944 183.105 135.694 183.222C136.468 183.316 137.124 183.433 137.663 183.574C138.202 183.691 138.636 183.82 138.964 183.961C139.292 184.078 139.538 184.16 139.702 184.207C139.866 184.254 139.948 184.371 139.948 184.558C139.972 184.746 139.936 184.945 139.843 185.156C139.772 185.343 139.643 185.507 139.456 185.648C139.268 185.789 139.057 185.836 138.823 185.789C138.589 185.765 138.319 185.718 138.014 185.648C137.733 185.578 137.382 185.519 136.96 185.472C136.561 185.425 136.081 185.379 135.518 185.332C134.956 185.285 134.3 185.261 133.55 185.261C133.409 185.261 133.245 185.273 133.057 185.297C132.893 185.297 132.718 185.297 132.53 185.297C132.436 185.672 132.343 186.047 132.249 186.422C132.179 186.773 132.073 187.148 131.932 187.547C131.628 188.484 131.276 189.504 130.878 190.605C130.526 191.566 130.104 192.668 129.612 193.91C129.12 195.152 128.569 196.476 127.96 197.882C127.819 198.89 127.831 199.664 127.995 200.203C128.182 200.718 128.405 201.093 128.663 201.328C128.968 201.586 129.343 201.726 129.788 201.75C130.139 201.797 130.561 201.679 131.054 201.398C131.569 201.093 132.097 200.695 132.636 200.203C133.175 199.711 133.714 199.172 134.253 198.586C134.815 198 135.331 197.425 135.8 196.863C136.268 196.3 136.679 195.797 137.03 195.351C137.382 194.882 137.628 194.554 137.768 194.367Z" fill="white"/>
<path d="M141.636 202.066C142.362 202.066 143.159 201.785 144.026 201.222C144.917 200.636 145.772 199.957 146.593 199.183C147.436 198.41 148.198 197.625 148.878 196.828C149.581 196.007 150.108 195.351 150.46 194.859C150.671 194.554 150.87 194.379 151.057 194.332C151.245 194.261 151.386 194.285 151.479 194.402C151.573 194.519 151.608 194.707 151.585 194.964C151.561 195.199 151.456 195.468 151.268 195.773C151.104 196.054 150.823 196.464 150.425 197.004C150.05 197.519 149.593 198.093 149.054 198.726C148.538 199.336 147.94 199.968 147.261 200.625C146.604 201.257 145.913 201.843 145.186 202.382C144.46 202.898 143.71 203.32 142.936 203.648C142.163 204 141.401 204.175 140.651 204.175C139.62 204.175 138.753 203.976 138.05 203.578C137.37 203.203 136.819 202.711 136.397 202.101C135.999 201.492 135.718 200.824 135.554 200.097C135.389 199.347 135.307 198.609 135.307 197.882C135.307 197.156 135.472 196.254 135.8 195.175C136.128 194.097 136.608 193.066 137.241 192.082C137.897 191.074 138.718 190.218 139.702 189.515C140.686 188.789 141.847 188.425 143.182 188.425C143.932 188.425 144.565 188.683 145.081 189.199C145.62 189.714 145.878 190.418 145.854 191.308C145.854 191.73 145.784 192.152 145.643 192.574C145.503 192.972 145.315 193.336 145.081 193.664C144.847 193.968 144.565 194.214 144.237 194.402C143.932 194.589 143.593 194.683 143.218 194.683C142.913 194.683 142.679 194.578 142.514 194.367C142.374 194.132 142.28 193.875 142.233 193.593C142.21 193.289 142.21 192.996 142.233 192.714C142.28 192.433 142.327 192.246 142.374 192.152C142.491 191.988 142.62 191.871 142.761 191.8C142.901 191.73 143.065 191.648 143.253 191.554C143.393 191.484 143.499 191.379 143.569 191.238C143.663 191.097 143.71 190.945 143.71 190.781C143.71 190.617 143.663 190.476 143.569 190.359C143.475 190.242 143.323 190.183 143.112 190.183C142.901 190.183 142.514 190.359 141.952 190.711C141.413 191.039 140.85 191.543 140.264 192.222C139.702 192.879 139.198 193.711 138.753 194.718C138.307 195.726 138.073 196.898 138.05 198.234C138.026 199.007 138.132 199.64 138.366 200.132C138.6 200.625 138.893 201.011 139.245 201.293C139.597 201.574 139.983 201.773 140.405 201.89C140.827 202.007 141.237 202.066 141.636 202.066Z" fill="white"/>
<path d="M166.878 195.527C167.042 195.339 167.206 195.246 167.37 195.246C167.557 195.222 167.698 195.269 167.792 195.386C167.909 195.48 167.956 195.632 167.932 195.843C167.932 196.054 167.839 196.289 167.651 196.547C167.206 197.156 166.69 197.789 166.104 198.445C165.518 199.078 164.886 199.699 164.206 200.308C163.55 200.918 162.882 201.492 162.202 202.031C161.522 202.57 160.866 203.015 160.233 203.367C159.53 203.765 158.932 203.964 158.44 203.964C157.972 203.964 157.503 203.66 157.034 203.05C156.612 202.511 156.401 201.937 156.401 201.328C156.425 200.695 156.565 199.91 156.823 198.972C156.987 198.386 157.21 197.695 157.491 196.898C157.796 196.078 158.03 195.293 158.194 194.543C158.382 193.793 158.44 193.16 158.37 192.644C158.3 192.105 157.995 191.836 157.456 191.836C157.081 191.836 156.671 191.964 156.225 192.222C155.804 192.48 155.37 192.82 154.925 193.242C154.503 193.64 154.093 194.097 153.694 194.613C153.296 195.129 152.944 195.632 152.64 196.125C152.452 197.039 152.265 197.941 152.077 198.832C151.913 199.582 151.737 200.402 151.55 201.293C151.386 202.16 151.222 202.933 151.057 203.613C150.917 203.73 150.765 203.812 150.6 203.859C150.436 203.906 150.284 203.929 150.143 203.929C149.979 203.929 149.815 203.918 149.651 203.894C149.464 203.847 149.288 203.777 149.124 203.683C148.983 203.589 148.843 203.461 148.702 203.297C148.561 203.156 148.456 202.957 148.386 202.699C149.44 198.363 150.272 194.882 150.882 192.257C151.491 189.632 151.96 187.629 152.288 186.246C152.663 184.605 152.921 183.468 153.061 182.836C153.132 182.39 153.19 181.957 153.237 181.535C153.284 181.16 153.307 180.773 153.307 180.375C153.307 179.976 153.272 179.613 153.202 179.285C153.39 179.168 153.589 179.074 153.8 179.004C154.034 178.933 154.257 178.875 154.468 178.828C154.725 178.757 154.983 178.699 155.241 178.652C155.499 178.605 155.733 178.582 155.944 178.582C156.132 178.582 156.307 178.605 156.472 178.652C156.636 178.675 156.741 178.746 156.788 178.863C156.929 178.98 156.987 179.214 156.964 179.566C156.964 179.918 156.94 180.281 156.893 180.656C156.8 181.101 156.694 181.582 156.577 182.097C156.085 183.996 155.534 185.847 154.925 187.652C154.315 189.433 153.753 191.343 153.237 193.382C153.542 192.914 153.905 192.433 154.327 191.941C154.749 191.449 155.206 191.004 155.698 190.605C156.214 190.183 156.753 189.843 157.315 189.586C157.878 189.304 158.475 189.164 159.108 189.164C159.436 189.164 159.741 189.222 160.022 189.339C160.327 189.433 160.585 189.609 160.796 189.867C161.03 190.101 161.206 190.429 161.323 190.851C161.44 191.25 161.487 191.754 161.464 192.363C161.464 192.738 161.417 193.125 161.323 193.523C161.253 193.922 161.147 194.367 161.007 194.859C160.866 195.328 160.679 195.855 160.444 196.441C160.233 197.027 159.975 197.707 159.671 198.48C159.46 199.019 159.296 199.476 159.179 199.851C159.061 200.226 159.085 200.554 159.249 200.836C159.46 201.211 159.87 201.304 160.479 201.117C161.112 200.906 162.05 200.297 163.292 199.289C163.573 199.054 163.89 198.761 164.241 198.41C164.593 198.058 164.932 197.707 165.261 197.355C165.589 196.98 165.893 196.629 166.175 196.3C166.456 195.972 166.69 195.714 166.878 195.527Z" fill="white"/>
<path d="M173.804 208.289C173.897 208.218 174.05 208.101 174.261 207.937C174.448 207.773 174.682 207.468 174.964 207.023C175.222 206.578 175.515 205.933 175.843 205.089C176.171 204.246 176.511 203.097 176.862 201.644C177.05 200.871 177.296 199.886 177.6 198.691C177.905 197.496 178.233 196.218 178.585 194.859C178.96 193.5 179.335 192.105 179.71 190.675C180.085 189.222 180.448 187.851 180.8 186.562C181.151 185.25 181.468 184.066 181.749 183.011C182.03 181.957 182.253 181.136 182.417 180.55C181.972 180.832 181.538 181.148 181.116 181.5C180.741 181.804 180.343 182.156 179.921 182.554C179.499 182.929 179.089 183.328 178.69 183.75C178.386 183.492 178.151 183.211 177.987 182.906C177.893 182.765 177.811 182.613 177.741 182.449C177.6 182.097 177.53 181.734 177.53 181.359C177.53 180.984 177.823 180.597 178.409 180.199C178.714 179.988 179.171 179.683 179.78 179.285C180.413 178.886 181.186 178.5 182.1 178.125C183.015 177.726 184.081 177.386 185.3 177.105C186.518 176.824 187.866 176.683 189.343 176.683C190.819 176.683 192.003 176.976 192.893 177.562C193.807 178.148 194.499 178.863 194.968 179.707C195.46 180.55 195.776 181.441 195.917 182.379C196.057 183.316 196.093 184.136 196.022 184.839C195.882 186.152 195.46 187.523 194.757 188.953C194.054 190.382 193.081 191.707 191.839 192.925C190.597 194.121 189.085 195.14 187.304 195.984C185.522 196.828 183.483 197.308 181.186 197.425C180.999 198.316 180.811 199.23 180.624 200.168C180.436 201.105 180.237 202.031 180.026 202.945C179.815 203.836 179.593 204.668 179.358 205.441C179.147 206.238 178.925 206.918 178.69 207.48C178.456 208.089 178.151 208.57 177.776 208.922C177.401 209.297 176.804 209.484 175.983 209.484C175.561 209.484 175.175 209.379 174.823 209.168C174.448 208.957 174.108 208.664 173.804 208.289ZM182.136 192.257C182.065 192.632 181.972 193.125 181.854 193.734C181.761 194.32 181.643 194.988 181.503 195.738C182.136 195.644 182.839 195.48 183.612 195.246C184.386 194.988 185.159 194.648 185.932 194.226C186.706 193.804 187.456 193.3 188.182 192.714C188.932 192.105 189.612 191.414 190.222 190.64C190.831 189.843 191.335 188.953 191.733 187.968C192.155 186.961 192.425 185.847 192.542 184.629C192.659 183.457 192.589 182.484 192.331 181.711C192.097 180.914 191.745 180.281 191.276 179.812C190.807 179.32 190.268 178.98 189.659 178.793C189.05 178.582 188.44 178.476 187.831 178.476C187.245 178.476 186.671 178.558 186.108 178.722C185.546 178.886 184.983 179.097 184.421 179.355C184.491 179.379 184.573 179.437 184.667 179.531C184.807 179.672 184.913 179.871 184.983 180.129C184.421 182.402 183.952 184.3 183.577 185.824C183.225 187.347 182.944 188.589 182.733 189.55C182.475 190.675 182.276 191.578 182.136 192.257Z" fill="white"/>
<path d="M213.53 196.265C213.202 196.734 212.78 197.32 212.264 198.023C211.749 198.703 211.21 199.394 210.647 200.097C210.108 200.777 209.569 201.41 209.03 201.996C208.514 202.558 208.081 202.957 207.729 203.191C207.495 203.332 207.225 203.449 206.921 203.543C206.616 203.636 206.3 203.695 205.972 203.718C205.667 203.742 205.374 203.718 205.093 203.648C204.811 203.601 204.565 203.507 204.354 203.367C204.143 203.203 203.968 202.968 203.827 202.664C203.71 202.406 203.593 202.066 203.475 201.644C203.382 201.222 203.347 200.695 203.37 200.062C202.807 201 202.186 201.726 201.507 202.242C200.827 202.734 200.182 203.097 199.573 203.332C198.87 203.589 198.167 203.742 197.464 203.789C197.136 203.789 196.784 203.672 196.409 203.437C196.034 203.226 195.718 202.886 195.46 202.418C195.202 201.925 195.038 201.304 194.968 200.554C194.897 199.781 194.991 198.867 195.249 197.812C195.577 196.382 196.093 195.082 196.796 193.91C197.522 192.738 198.307 191.742 199.151 190.922C199.995 190.078 200.827 189.445 201.647 189.023C202.468 188.601 203.147 188.414 203.686 188.461C204.319 188.578 204.835 188.765 205.233 189.023C205.561 189.257 205.772 189.609 205.866 190.078C205.983 190.523 205.796 191.121 205.304 191.871C205.632 191.8 205.901 191.754 206.112 191.73C206.347 191.707 206.522 191.695 206.64 191.695C206.78 191.695 206.874 191.707 206.921 191.73C206.944 191.777 206.956 191.882 206.956 192.047C206.956 192.187 206.921 192.457 206.85 192.855C206.78 193.254 206.675 193.793 206.534 194.472C206.393 195.152 206.206 196.031 205.972 197.109C205.925 197.32 205.878 197.519 205.831 197.707C205.807 197.871 205.772 198.047 205.725 198.234C205.702 198.398 205.667 198.597 205.62 198.832C205.573 199.066 205.515 199.359 205.444 199.711C205.421 199.922 205.409 200.156 205.409 200.414C205.432 200.648 205.479 200.871 205.55 201.082C205.62 201.293 205.725 201.468 205.866 201.609C206.03 201.726 206.253 201.785 206.534 201.785C206.768 201.785 207.073 201.644 207.448 201.363C207.823 201.058 208.222 200.683 208.643 200.238C209.065 199.769 209.499 199.265 209.944 198.726C210.413 198.164 210.847 197.625 211.245 197.109C211.643 196.593 211.995 196.136 212.3 195.738C212.628 195.339 212.862 195.047 213.003 194.859C213.19 194.648 213.378 194.531 213.565 194.507C213.753 194.461 213.893 194.507 213.987 194.648C214.081 194.789 214.093 195 214.022 195.281C213.975 195.562 213.811 195.89 213.53 196.265ZM203.229 197.812C203.347 197.343 203.487 196.793 203.651 196.16C203.815 195.527 203.956 194.918 204.073 194.332C204.19 193.746 204.272 193.265 204.319 192.89C204.39 192.492 204.378 192.304 204.284 192.328C204.167 192.351 204.038 192.386 203.897 192.433C203.78 192.48 203.628 192.515 203.44 192.539C203.253 192.562 203.065 192.597 202.878 192.644C203.065 192.269 203.171 191.964 203.194 191.73C203.241 191.472 203.253 191.273 203.229 191.132C203.206 190.968 203.159 190.839 203.089 190.746C202.831 190.535 202.374 190.711 201.718 191.273C201.085 191.812 200.347 192.82 199.503 194.297C199.151 194.906 198.87 195.562 198.659 196.265C198.448 196.945 198.296 197.589 198.202 198.199C198.132 198.808 198.12 199.347 198.167 199.816C198.214 200.261 198.307 200.554 198.448 200.695C198.706 200.953 198.999 201.082 199.327 201.082C199.655 201.058 199.983 200.964 200.311 200.8C200.663 200.613 201.003 200.379 201.331 200.097C201.682 199.816 201.987 199.523 202.245 199.218C202.526 198.914 202.749 198.632 202.913 198.375C203.1 198.117 203.206 197.929 203.229 197.812Z" fill="white"/>
<path d="M209.839 203.086C209.675 203.343 209.499 203.507 209.311 203.578C209.1 203.672 208.925 203.683 208.784 203.613C208.62 203.566 208.515 203.449 208.468 203.261C208.421 203.074 208.468 202.839 208.608 202.558C208.679 202.418 208.843 202.101 209.1 201.609C209.335 201.117 209.628 200.531 209.979 199.851C210.307 199.148 210.671 198.398 211.069 197.601C211.468 196.781 211.843 196.007 212.194 195.281C212.569 194.554 212.909 193.91 213.214 193.347C213.518 192.761 213.741 192.339 213.882 192.082C213.624 191.847 213.448 191.683 213.354 191.589C213.261 191.472 213.19 191.238 213.143 190.886C213.097 190.582 213.167 190.183 213.354 189.691C213.542 189.199 213.788 188.73 214.093 188.285C214.397 187.816 214.737 187.418 215.112 187.089C215.487 186.761 215.85 186.597 216.202 186.597C216.858 186.597 217.315 186.808 217.573 187.23C217.854 187.652 218.018 188.086 218.065 188.531C218.112 188.836 218.089 189.222 217.995 189.691C217.901 190.16 217.725 190.582 217.468 190.957C217.538 191.004 217.632 191.062 217.749 191.132C217.866 191.179 218.054 191.203 218.311 191.203C218.686 191.203 218.944 191.179 219.085 191.132C219.249 191.086 219.495 191.062 219.823 191.062C220.222 191.062 220.55 191.168 220.807 191.379C221.065 191.566 221.276 191.812 221.44 192.117C221.604 192.398 221.722 192.714 221.792 193.066C221.886 193.394 221.944 193.699 221.968 193.98C222.038 194.566 221.886 195.175 221.511 195.808C221.136 196.441 220.679 197.132 220.139 197.882C219.811 198.351 219.483 198.879 219.155 199.464C218.827 200.05 218.686 200.578 218.733 201.047C218.78 201.351 218.862 201.597 218.979 201.785C219.097 201.972 219.425 202.066 219.964 202.066C220.362 202.066 220.796 201.925 221.264 201.644C221.757 201.339 222.249 200.964 222.741 200.519C223.257 200.05 223.761 199.547 224.253 199.007C224.745 198.445 225.202 197.906 225.624 197.39C226.046 196.851 226.397 196.371 226.679 195.949C226.983 195.527 227.206 195.222 227.347 195.035C227.464 194.847 227.616 194.718 227.804 194.648C227.991 194.578 228.155 194.578 228.296 194.648C228.436 194.718 228.518 194.859 228.542 195.07C228.589 195.281 228.507 195.562 228.296 195.914C228.155 196.148 227.909 196.523 227.557 197.039C227.229 197.554 226.819 198.129 226.327 198.761C225.858 199.394 225.331 200.05 224.745 200.73C224.159 201.386 223.538 201.996 222.882 202.558C222.249 203.097 221.604 203.543 220.948 203.894C220.315 204.246 219.706 204.422 219.12 204.422C218.511 204.422 218.007 204.304 217.608 204.07C217.21 203.836 216.882 203.554 216.624 203.226C216.389 202.875 216.214 202.5 216.097 202.101C216.003 201.679 215.968 201.293 215.991 200.941C216.014 200.66 216.085 200.367 216.202 200.062C216.343 199.734 216.495 199.406 216.659 199.078C216.847 198.726 217.034 198.386 217.222 198.058C217.432 197.707 217.62 197.367 217.784 197.039C218.182 196.359 218.499 195.785 218.733 195.316C218.991 194.824 219.12 194.414 219.12 194.086C219.12 193.875 219.073 193.687 218.979 193.523C218.886 193.359 218.733 193.277 218.522 193.277C218.382 193.277 218.276 193.289 218.206 193.312C218.159 193.312 218.1 193.312 218.03 193.312C217.983 193.312 217.901 193.324 217.784 193.347C217.69 193.347 217.538 193.347 217.327 193.347C217.022 193.347 216.764 193.3 216.554 193.207C216.343 193.113 216.143 193.043 215.956 192.996C215.862 193.16 215.651 193.511 215.323 194.05C214.995 194.589 214.608 195.222 214.163 195.949C213.741 196.675 213.284 197.437 212.792 198.234C212.323 199.031 211.878 199.781 211.456 200.484C211.034 201.164 210.682 201.75 210.401 202.242C210.097 202.711 209.909 202.992 209.839 203.086Z" fill="white"/>
<path d="M238.772 194.367C238.866 194.226 238.983 194.144 239.124 194.121C239.288 194.074 239.417 194.086 239.511 194.156C239.604 194.226 239.651 194.343 239.651 194.507C239.675 194.672 239.616 194.894 239.475 195.175C239.007 196.066 238.386 197.027 237.612 198.058C236.862 199.089 236.065 200.062 235.222 200.976C234.378 201.867 233.557 202.605 232.761 203.191C231.964 203.777 231.296 204.07 230.757 204.07C229.983 204.07 229.339 203.918 228.823 203.613C228.307 203.308 227.897 202.933 227.593 202.488C227.311 202.043 227.112 201.562 226.995 201.047C226.878 200.507 226.843 200.015 226.889 199.57C226.913 199.195 226.995 198.527 227.136 197.566C227.276 196.582 227.464 195.457 227.698 194.191C227.932 192.902 228.19 191.531 228.472 190.078C228.776 188.601 229.093 187.183 229.421 185.824C229.022 185.871 228.624 185.918 228.225 185.964C227.827 186.011 227.464 186.035 227.136 186.035C226.386 186.035 225.682 185.953 225.026 185.789C224.347 185.601 223.843 185.425 223.514 185.261C223.327 185.168 223.245 185.039 223.268 184.875C223.292 184.687 223.362 184.511 223.479 184.347C223.597 184.16 223.749 184.007 223.936 183.89C224.1 183.75 224.253 183.679 224.393 183.679C224.839 183.726 225.319 183.773 225.835 183.82C226.35 183.843 226.913 183.843 227.522 183.82C227.968 183.797 228.389 183.761 228.788 183.714C229.21 183.668 229.62 183.609 230.018 183.539C230.323 182.414 230.616 181.441 230.897 180.621C231.202 179.777 231.472 179.191 231.706 178.863C231.776 178.746 231.929 178.652 232.163 178.582C232.421 178.488 232.69 178.429 232.972 178.406C233.253 178.359 233.522 178.359 233.78 178.406C234.038 178.429 234.225 178.511 234.343 178.652C234.46 178.839 234.507 179.32 234.483 180.093C234.46 180.867 234.331 181.851 234.097 183.047C235.081 183.047 235.948 183.105 236.698 183.222C237.472 183.316 238.128 183.433 238.667 183.574C239.206 183.691 239.639 183.82 239.968 183.961C240.296 184.078 240.542 184.16 240.706 184.207C240.87 184.254 240.952 184.371 240.952 184.558C240.975 184.746 240.94 184.945 240.847 185.156C240.776 185.343 240.647 185.507 240.46 185.648C240.272 185.789 240.061 185.836 239.827 185.789C239.593 185.765 239.323 185.718 239.018 185.648C238.737 185.578 238.386 185.519 237.964 185.472C237.565 185.425 237.085 185.379 236.522 185.332C235.96 185.285 235.304 185.261 234.554 185.261C234.413 185.261 234.249 185.273 234.061 185.297C233.897 185.297 233.722 185.297 233.534 185.297C233.44 185.672 233.347 186.047 233.253 186.422C233.182 186.773 233.077 187.148 232.936 187.547C232.632 188.484 232.28 189.504 231.882 190.605C231.53 191.566 231.108 192.668 230.616 193.91C230.124 195.152 229.573 196.476 228.964 197.882C228.823 198.89 228.835 199.664 228.999 200.203C229.186 200.718 229.409 201.093 229.667 201.328C229.972 201.586 230.347 201.726 230.792 201.75C231.143 201.797 231.565 201.679 232.057 201.398C232.573 201.093 233.1 200.695 233.639 200.203C234.179 199.711 234.718 199.172 235.257 198.586C235.819 198 236.335 197.425 236.804 196.863C237.272 196.3 237.682 195.797 238.034 195.351C238.386 194.882 238.632 194.554 238.772 194.367Z" fill="white"/>
<path d="M245.909 190.324C246.214 190.089 246.507 189.914 246.788 189.797C247.093 189.656 247.362 189.562 247.597 189.515C247.854 189.445 248.112 189.422 248.37 189.445C249.003 189.492 249.389 189.691 249.53 190.043C249.694 190.394 249.718 190.957 249.6 191.73C249.53 192.129 249.389 192.632 249.179 193.242C248.968 193.851 248.722 194.601 248.44 195.492C248.159 196.359 247.854 197.355 247.526 198.48C247.222 199.605 246.929 200.871 246.647 202.277C246.366 203.425 246.061 204.75 245.733 206.25C245.452 207.562 245.112 209.144 244.714 210.996C244.339 212.847 243.929 214.968 243.483 217.359C243.366 217.945 243.108 218.285 242.71 218.379C242.335 218.472 241.936 218.425 241.514 218.238C241.35 218.144 241.198 218.039 241.057 217.922C240.94 217.804 240.811 217.664 240.671 217.5C240.53 217.359 240.413 217.16 240.319 216.902C240.858 214.933 241.327 213.14 241.725 211.523C242.147 209.906 242.522 208.5 242.85 207.304C243.202 205.922 243.53 204.679 243.835 203.578C243.952 203.086 244.057 202.605 244.151 202.136C244.268 201.644 244.386 201.164 244.503 200.695C244.198 201.187 243.87 201.656 243.518 202.101C243.167 202.547 242.78 202.933 242.358 203.261C241.936 203.589 241.479 203.836 240.987 204C240.518 204.187 240.026 204.246 239.511 204.175C238.245 204.011 237.343 203.543 236.804 202.769C236.288 201.996 236.065 200.988 236.136 199.746C236.159 199.254 236.229 198.714 236.347 198.129C236.464 197.543 236.593 196.98 236.733 196.441C236.874 195.902 237.003 195.422 237.12 195C237.261 194.554 237.366 194.238 237.436 194.05C237.718 193.16 237.917 192.398 238.034 191.765C238.175 191.132 238.081 190.605 237.753 190.183C238.081 189.972 238.386 189.832 238.667 189.761C238.972 189.668 239.241 189.597 239.475 189.55C239.733 189.527 239.991 189.527 240.249 189.55C240.882 189.644 241.245 189.879 241.339 190.254C241.456 190.629 241.421 191.191 241.233 191.941C241.139 192.339 240.987 192.855 240.776 193.488C240.565 194.097 240.343 194.73 240.108 195.386C239.874 196.043 239.663 196.652 239.475 197.214C239.288 197.754 239.182 198.14 239.159 198.375C238.948 199.429 238.936 200.25 239.124 200.836C239.311 201.398 239.722 201.679 240.354 201.679C240.659 201.679 240.999 201.55 241.374 201.293C241.749 201.011 242.124 200.648 242.499 200.203C242.897 199.757 243.284 199.254 243.659 198.691C244.034 198.105 244.374 197.519 244.679 196.933C245.007 196.347 245.288 195.773 245.522 195.211C245.78 194.648 245.968 194.144 246.085 193.699C246.249 192.832 246.354 192.152 246.401 191.66C246.448 191.168 246.284 190.722 245.909 190.324Z" fill="white"/>
<defs>
<linearGradient id="paint0_linear" x1="194.938" y1="106.479" x2="234.321" y2="176.778" gradientUnits="userSpaceOnUse">
<stop stop-color="#BF1E2E"/>
<stop offset="1" stop-color="#FF4D15"/>
</linearGradient>
</defs>
</svg>
