<svg width="80" height="75" fill="none" xmlns="http://www.w3.org/2000/svg">
  <g clip-path="url(#clip0)">
    <path d="M20.468 58.851c-.203-.101 0-.609 0-.812-.101 0-.101-.101-.101-.203a6.974 6.974 0 0 1 .101-2.03c0-.101-.203-.101-.101-.203h.101a.525.525 0 0 0-.203-.406h.203a2.802 2.802 0 0 0 0-1.827c.102-.203.408-.609 0-.812.204-.102.204-.304.102-.508.102 0 .102-.203.204-.101-.204-.71 0-.913 0-1.624 0-.102.102-.102.204-.102-.102-.203-.204-.507 0-.71 0-.609-.204-1.116.203-1.624-.102-.61.204-1.218 0-1.726h.102c-.204-.913.611-1.928 0-2.842.102 0 .102-.101.204-.101s-.102-.102-.102-.203c.193-.449.23-.95.102-1.421.168-.766.236-1.551.203-2.335.102-.101 0-.203.204-.203 0-.101-.102-.101-.102-.203.204 0 .102-.203.306-.203-.204-.507.407-1.015.102-1.522.203-.102-.102-.406.203-.61-.102 0 0-.202-.102-.202a1.784 1.784 0 0 0 .204-1.421c.407-.406.306-1.015.51-1.421-.204-.508.203-1.015-.103-1.32.102-.406.408-.71.204-1.116.256-.501.363-1.065.306-1.624a1.905 1.905 0 0 0 .203-1.523 1.104 1.104 0 0 0 .204-1.117c.305-.405.204-1.014.51-1.522 0-.102-.103-.102-.103-.203.408-.812.408-1.726.815-2.538 0-.101 0-.101-.102-.203.102 0 .102-.101.204-.101-.204-.812.509-1.624.407-2.538.102-.101.102-.203.204-.203s0-.203.102-.203c-.102-.203 0-.203 0-.406a.791.791 0 0 0 .203-.812c.204-.304.204-.812.51-1.116.101-.102 0 0 0-.203a.357.357 0 0 0 .101-.508c.204-.507.51-.812.408-1.42.101 0 .101-.102.203-.102.11-.724.28-1.437.51-2.132.61-.71.509-1.827.61-2.842-.203-.406-.203-.71-.407-1.116a5.81 5.81 0 0 0-.713-.812c-.203.101-.203-.203-.509-.102l-.305-.304c-1.222-.305-2.037-1.218-3.463-.711-.565.301-1.11.64-1.63 1.015-.22.288-.498.53-.814.71v.102a19.292 19.292 0 0 0-3.157 3.959c-.101 0-.101.101-.203.101-.51.914-1.019 1.929-1.63 2.842 0 .102-.101.102 0 .203-.407.305-.203 1.117-.712 1.32-.306.609-.815 1.116-1.12 1.725-1.019 1.015-1.324 2.335-2.24 3.451.101.102 0 .102 0 .203a1.4 1.4 0 0 0-.306.406c0 .203-.204.305-.204.508a36.73 36.73 0 0 0-2.444 4.364c.102.102 0 .102 0 .203a7.317 7.317 0 0 0-.917 2.03c-.305.407-.407.813-.712 1.219v.203c-.339.454-.581.972-.713 1.522-.204 0-.102.406-.306.305 0-.305.306-.61.204-.812 0 .101-.102-.203-.204-.102.204-.304 0-.812.306-1.116-.102 0-.102 0-.204-.102.036-.859.173-1.71.407-2.537h.204c0-.102-.102-.203-.204-.305.102-.305.306-.406.102-.812a1.176 1.176 0 0 0 .204-1.015c0-.101.305-.101.204-.203a.316.316 0 0 1-.204-.101c.204-.305.204-.508 0-1.016.305-.203.102-.71.407-.913-.102 0-.203-.102-.102-.203a.378.378 0 0 0 .306-.102c-.102-.406-.204-.812.102-1.116-.102-.305 0-.508.305-.508-.102-.406-.305-.812.102-.913.102-.914-.815-1.218-1.324-1.523-.102.203-.61 0-.814-.203-.408.102-.815-.101-1.019.203-.61 0-1.018.305-1.527 0-1.019.102-1.833-.609-2.546 0a2.56 2.56 0 0 0-.204 1.726c.306.101.306.304.204.609a.224.224 0 0 1 .204.203 24.535 24.535 0 0 0-.204 4.06H.509a15.328 15.328 0 0 1-.204 3.147c.204.304-.101 1.218 0 1.827-.101 0-.203 0-.203.101 0 .102.102.102.203.102-.203.71.102 1.32-.305 1.928h.102c-.204.508.102 1.218-.102 1.929.815.609.51.913.713 1.42-.102.102-.306.102-.306.204 0 .101.204 0 .204.101 0 .102-.204 0-.204.102 0 .101.102.101.204.101-.306 1.827 0 4.263-.306 6.09 0 .102.102.203.102.305-.102.406.204 1.42-.203 1.827 0 .101.203.101.101.203-.101.101 0 .203-.203.203 0 .203.305-.102.305.101s-.305.508 0 .812c0 .102-.102.203-.102.406a5.444 5.444 0 0 1 0 2.233c.102 2.538 0 5.177.102 7.309a2.47 2.47 0 0 0 0 1.218C0 58.547.51 59.562.204 60.17c.203.101 0 .406 0 .507 0 .102.101.203.101.406a1.72 1.72 0 0 0 0 1.015c-.153.462-.153.96 0 1.421-.06.637.083 1.276.408 1.827 1.018.61 2.138.508 2.953.812.204-.101.611.102 1.018 0 .611-.101.713-.609.917-1.116a.607.607 0 0 1-.102-.406c-.306-.61-.102-1.421-.407-2.132 0-1.928-.611-4.466 0-6.496-.102-.507.203-.812.101-1.42.204-.305-.101-.61 0-.914-.101-.305 0-.305-.101-.508.101-.101 0-.406.203-.508-.102-.203-.203-.405 0-.507a1.346 1.346 0 0 1 .102-1.117 4.35 4.35 0 0 0 0-1.623c0-.102.204 0 .102-.203v-.305c.305-1.117-.102-2.74.204-3.654.101 0 .203 0 .203-.102 0-.101-.102 0-.203-.101.203-.203 0-.61.305-.812-.204-.406.306-.71.204-1.218.102-.203.102-.406.407-.508-.102-.203.102-.304 0-.507.102-.102.102-.203.204-.203h-.204c.51-.812.51-1.929 1.018-2.74.306-1.422 1.019-2.64 1.426-3.96.102-.1.102-.304.306-.304a3.04 3.04 0 0 1 .814-1.827l-.101-.304c.101 0 .101-.102.203-.102.176-.762.415-1.51.713-2.233h.204c0-.508.407-.812.407-1.32.407-.507.51-1.218 1.018-1.725a5.655 5.655 0 0 1 .917-2.132c.102 0 .102-.203.204-.101a5.719 5.719 0 0 1 1.323-2.436 6.754 6.754 0 0 1 1.222-2.03c.204-.914 1.019-1.624 1.222-2.538.102 0 .102-.101.204-.101a4.12 4.12 0 0 1 1.527-2.335c.102-.101.102-.304.204-.406.51-.304.917-1.015 1.63-1.32.203-.507.712-.71 1.12-1.116a1.226 1.226 0 0 1 .712-.71c-.305 1.218-.712 2.334-.916 3.552-.102 0-.204 0-.204.102 0 .101-.102.507-.203.812.101.406-.102.609-.204.913 0 .812-.407 1.726-.51 2.74h-.101c.102.407-.204.61 0 .813-.407.609-.306 1.522-.611 2.233 0 .101 0 .101.102.304a2.257 2.257 0 0 0-.306 1.421c-.305.914-.407 2.03-.713 3.045a.102.102 0 0 1 .102.102c-.102 0-.102.203 0 .203-.407.508-.203 1.015-.203 1.624a.75.75 0 0 0-.102.914c-.102.304-.408.609-.204 1.015-.204.101-.204.507-.102.507h-.102a25.654 25.654 0 0 0-.305 3.045c-.102.102-.102.203-.204.305.204.406-.305.71-.102 1.015l-.101.203c.101.913-.306 2.03-.204 2.943-.204.203-.102.508-.102.914h-.102c0 1.42-.305 3.35-.407 5.176l-.204.203c.105.296.105.618 0 .914 0 .101.102.101.102.304-.204 2.233-.305 4.466-.407 6.497-.102.101-.102.304-.204.406.012.614.08 1.225.204 1.827h-.102c0 1.015.102 2.233 0 3.35.305.405 0 1.319.305 1.928-.101.101 0 .203-.101.203a1.195 1.195 0 0 1 .101 1.015c.152.702.254 1.415.306 2.131l-.102.102c.183.453.286.933.306 1.42.183.53.32 1.073.407 1.625 0 .101-.102.203-.102.304 0 .102.102.203.204.406.226.76.498 1.506.814 2.233 0 0-.101.203 0 .203.102 0 0-.101.102-.101.102.406.306.609.306 1.015.203.102.203.203.407.305 0 .101-.102.101 0 .203h.204c-.204 0 0 .101 0 .203.077.01.148.046.203.101a7.746 7.746 0 0 0 3.666 2.03c.482.018.96.086 1.426.203v-.203c0 .203.204 0 .102.203a4.984 4.984 0 0 0 3.87-1.725h.203a23.636 23.636 0 0 0 1.935-2.335c.308-.417.58-.858.815-1.32a5.245 5.245 0 0 0 1.222-1.827c.509-.304.509-1.218 1.12-1.522.102-.508.51-.71.51-1.32.305-.101.1-.609.508-.812 0-.101 0-.203-.102-.203.306-.101.204-.406.51-.507 0-.203 0-.203-.102-.305.203.102.102 0 .305-.101.204-.102-.102-.102-.102-.305.204-.101 0-.304.306-.304-.204-.305.102-.508.102-.71h.101c.102-.102-.101-.305 0-.305h.204c-.102-.71.611-.812.407-1.421.204-.203.51-.406.306-.71.306-.102.306-.508.51-.711-.103-.102-.205.101-.205 0l.612-.61c0-.405 0-.405.203-.608-.102-.102-.305 0-.305-.305a.38.38 0 0 1 .305.102.223.223 0 0 1 .204-.203c0-.102-.102 0-.102-.203.055.055.127.09.204.101 0-.101-.102-.101-.102-.203.203 0 .203-.101.305-.203.102-.101-.102-.101-.102-.203.306 0-.101-.304.204-.304v.101c.102-.203.407-.304.102-.406.204-.101.305-.203.305-.304-.203 0 0 0 0-.102 0-.101-.203.102-.203 0 0-.101.203-.101.203 0 .102-.203.204-.203.408-.203v-.101c-.204.101 0-.203 0 0 .203-.305.102-.61.203-.914-.101 0-.203-.101-.101-.203.102-.101.102.203.203.102.102-.102 0-.305 0-.406h.102c-.102-.203.102-.203.102-.305a.141.141 0 0 0-.157-.032.141.141 0 0 0-.047.032c.102-.203.306-.101.408-.304-.306-.508.203-1.016.407-1.422.102-.101-.102-.304.204-.304-.102-.203 0-.304-.102-.406.102 0 .102-.102.305-.102.204 0-.203-.203 0-.203a2.031 2.031 0 0 0 .611-1.522c.102 0 0 .203.204.101.02-.248.09-.489.204-.71-.204.102-.102-.102 0-.102v.102a.457.457 0 0 0 0-.508c.203 0 .305-.304.203-.507.306-.102.204-.508.408-.61 0-.608.407-1.014.407-1.623.102 0 .102-.102.204-.102 0-.507.509-.812.407-1.42.204 0 0-.204.204-.204-.102-.406.407-.812.305-1.42.306-.305.204-.914.51-1.422-.612-.71-.408-.812-.408-1.015l-2.75 5.177h-.101c.102.406-.408.507-.204.913-.815 1.32-1.426 2.843-2.342 4.06 0 .102.102.102.102.204h-.102a8.29 8.29 0 0 0-.917 1.928h-.101c.101.203-.102.101-.102.203a.102.102 0 0 1 .102.102 1.697 1.697 0 0 0-.713 1.32 1.39 1.39 0 0 0-.51.811c-.305-.101-.101.406-.305.61-.204.202-.102-.102-.204 0a4.416 4.416 0 0 0-.407.71c0 .101.204.101.102.203h-.204c-.407 1.116-1.324 1.928-1.73 3.045h-.103a80.388 80.388 0 0 1-4.684 6.8c-.407.406-.815 1.015-1.324 1.218a.76.76 0 0 1-.51.71 10.888 10.888 0 0 1-3.054 3.046c-.28.34-.682.558-1.12.609-.204-.203-.306-.508-.51-.71a12.617 12.617 0 0 1-1.221-4.06c0-.102-.204-.102-.102-.204a.375.375 0 0 0 .102-.304.102.102 0 0 1-.102-.102c.102-.203-.102-.507-.204-.609.204-.203-.102-.304 0-.609a1.73 1.73 0 0 1-.102-1.218c-.407-.71.102-1.624-.305-2.436.203-.507-.102-1.015-.102-1.522-.102-.102-.204.203-.306-.102.102 0 .204-.101.306 0-.611-.203-.204-.203-.306-.406zm7.536-50.345c0-.203.102.203 0 0zM20.468 23.63l.102-.102-.102.102zM6.212 33.07c.102 0 .102.203 0 0zm17.21-4.162c.101.101 0 .101 0 0zm-.611 3.553c0-.203.101.203 0 0zm-.408 2.233l.102-.102c-.102 0-.102 0-.102.102zm-.407 2.74v-.101c.102-.102.102.203 0 .101zm-2.851 1.726c0 .101-.102.101 0 0zm2.138 0c.102-.102 0 .101 0 0zm-1.63 3.146c0-.203.103.203 0 0zm-1.323.508c-.204.101-.102-.203 0 0zm2.138 1.015c0-.203.102.203 0 0zm-2.138.812c0 .101-.102 0-.102 0s.102.101.102 0zm.51 0c.1-.305.203.101 0 0zm-.816.71v-.406h.204c.102.305 0 .305 0 .406 0-.101-.102-.101-.204 0zm2.444-.812c.102-.203.102.102 0 0zm-2.647 1.421c0-.203.203-.609.407-.304 0 .203-.102.304-.305.406l-.102-.102zm.713.406c-.102-.101 0-.203.101-.304 0 .101.102.203-.101.304zm-.713.61c.073-.16.108-.333.102-.508.203.101.203.304.305 0 .204.507-.102 1.015 0 1.624-.204.101.102.406-.305.406a5.06 5.06 0 0 0-.204-1.218c.407 0-.204-.203.204-.203.101-.203 0-.203-.102-.102zm1.018.507c0 .101-.204.203-.204 0h.204zm2.24-.305c0 .102-.101.102 0 0zm-.61.914c0-.203.101.203 0 0zm-2.546 1.32h.101a.788.788 0 0 1-.305.71c.204.102 0 .304-.102.406-.102.102-.204-.102-.305-.102.203-.203.305-.71.61-.812h-.203c-.102-.304.102-.203 0-.405.204-.102.305-.305.204-.407.101 0 .101.203.203.102-.102.203-.102.406-.203.507zm1.934-.813c0 .102-.101.102 0 0zm.713.407l.102-.102-.102.101zm-3.258 2.537c0-.203.101-.203 0-.406l.203-.102c.102.305 0 .407-.203.508zm2.953.304c0 .102-.102.102-.204.102.102 0 .102-.102.204-.102zm-.917.711c0 .102-.102.102 0 0-.102.102-.102 0 0 0zm.917.102c0-.203.102.203 0 0zm-1.222.609l.102-.102-.102.102zm-.917.304c0-.101.204.203 0 0zm2.444-.609c.102-.101 0 .203 0 0zm-1.63 1.117c.205 0-.203.304 0 0zm1.528-.305c0-.203.102.203 0 0zm-2.138.914l.102-.102-.102.102zm2.24-.61c0 .102-.102.102 0 0zm-2.342.813c0-.203.102.203 0 0zm1.833-.305c0-.203.102.102 0 0zm.204 0l.102-.101-.102.101zm-2.139.61c0 .1-.102.1 0 0-.102.1-.102 0 0 0zm20.672-4.772c0-.101.102.203 0 0zm-19.45 5.279c.102-.102 0 .203 0 0zm-1.73.812c0-.203.1.101 0 0zm1.934-.203c0-.203.102.101 0 0zm20.57-5.177c0-.203.102.203 0 0zm-19.857 5.481c-.102 0 0-.101 0-.203 0-.101-.102.102 0 .203zm19.552-5.075c.102.102 0 .102 0 0zm-22.404 6.293c0-.101.102.203 0 0zm21.996-5.582c0-.102.102.203 0 0zm-2.036.812c0-.204.102.101 0 0zm-17.21 4.466l-.102-.102c.102 0 .102 0 .102.102zm-1.018.203c0-.203.101.203 0 0zm20.468-4.872c0 .101-.102.101 0 0zm-20.672 5.48c0-.202.102.204 0 0zm-.917.508c-.101 0-.101 0-.203-.101.102 0 .203 0 .203.101zm21.283-4.872c0-.203.102.203 0 0zm-19.042 5.177c-.102 0 0-.102 0-.203.203 0 0 .101 0 .203zm-.713 1.015c.102-.203.102.101 0 0zm-1.324.406c0-.203.102.101 0 0zm1.935-.406c0-.203.102.203 0 0zm.305.203a.357.357 0 0 0-.203-.102c.102 0 .305 0 .203.102zm17.618-4.365c.101 0 .101.102 0 0zm-17.618 5.075c0-.203.102.203 0 0zm-2.545 1.218c0-.203.101.203 0 0zm2.24-.203c0-.203.102.203 0 0zm0 .61c.102-.204.102.1 0 0zm.102.71l.102-.102-.102.102zm16.191-3.857c-.102 0-.102 0-.102-.102.102 0 .102 0 .102.102zm-15.58 6.09c0-.203.102.203 0 0zm14.562-3.654c0-.203.102.203 0 0zm.102 0c0-.203.102.101 0 0zm-2.953 5.582l-.102-.101c.102 0 .203 0 .102.101zM20.06 72.554c.102-.305.204.102 0 0zm1.222.609c-.305.102-.713-.203-.916-.609.203 0 .203.203.305.102.102.405.611.304.611.507zm6.721-.304c0-.203.102.203 0 0zm-1.63 1.218l.103-.102c0 .102 0 .102-.102.102zm-9.266-34.613c.102.102 0-.203 0 0zm27.393-.101c.204 0-.102-.203 0 0zM20.468 58.85c.204 0-.101-.101 0 0zm18.025-3.248c0 .102-.102.102 0 0zm-2.24 5.075v.102h.101v-.102h-.102zm-.102.203c.101.102 0-.203 0 0zm-.102.102c0 .203.203.101.102 0h-.102zm7.535-48.417c-.288.454-.43.986-.407 1.523 0 .101-.203.101-.203.304-.052.952-.154 1.901-.306 2.842 0 .203-.306.305-.204.61.306.913-.305 1.522-.102 2.537 0 .203-.101.101-.101.304a10.047 10.047 0 0 1-1.319 3.872 10.081 10.081 0 0 1-2.755 3.03c-2.545 1.421-3.36-2.334-3.055-4.161l-.101-.406c.203-.203 0-.71.305-.914.027-.713.095-1.425.204-2.131.305-.305.203-.71.203-1.117a.67.67 0 0 0 .204-.71c.102-.102.305-.102.204-.203.161-.39.264-.8.305-1.218.611-.71.611-1.726 1.324-2.436 0-.406.306-.61.407-.914.713-.71.917-1.725 1.833-2.334.102-.508.611-.71.815-1.117a3.99 3.99 0 0 0 1.018-.812c.179-.127.392-.198.611-.203.204 0 .306.102.51 0 .61-.101.916-.406.916-.913-.204-.812-1.018-.61-1.324-1.32-1.018-.406-1.731-1.32-2.851-1.522-.815 0-.917.913-1.731 1.319-2.546 3.857-4.99 7.816-6.212 12.485a12.496 12.496 0 0 0-.306 5.582c.102.203-.101.102-.101.305.814 2.944 1.629 5.583 3.87 6.192a7.333 7.333 0 0 1 2.545-.102c0-.101-.204-.203-.102-.304.51 0 .815-.508 1.324-.508.518-.47 1.062-.91 1.63-1.32.407-.812 1.12-1.623 1.629-2.436.101.406.203.711.305 1.117a5.898 5.898 0 0 0 3.157 2.03 5.38 5.38 0 0 0 2.342-1.421C50 24.34 50.917 20.077 52.24 16.017c.059-.756.195-1.504.408-2.233.05-.879.05-1.76 0-2.639a6.61 6.61 0 0 0-.51 2.03c-.814 2.335-1.527 4.67-2.24 7.004-.713 2.334-1.324 4.77-3.259 6.496-.101-.102-.407 0-.509 0-.102-.203-.203-.508-.305-.71-.122-1.972.015-3.951.407-5.888.102-1.928.407-3.35.51-5.38.712-.913-.408-1.42-1.019-1.725a6.228 6.228 0 0 0-1.426-.71c-.203.203-.509.203-.712.304zm22.607-.913a15.388 15.388 0 0 1 2.852-4.872c.084 1.086.016 2.18-.204 3.248a3.763 3.763 0 0 1-.204 1.827c.102.203.102.203 0 .304.204.203.102.914 0 1.117.063.61.029 1.227-.101 1.827.101.406-.204.812.101 1.218a8.68 8.68 0 0 0-.203 2.334.102.102 0 0 0-.102.102c.305 2.233-.102 4.161.407 6.597 0 .102 0 .203-.102.203-.101 0 .102.102.102.305-.305 1.218.408 2.944.51 4.162.101.304.305.609.203.913.204.102.306.406.407.812.102.102.204.102.306.305-.204 0-.102.101-.102.304 0 .203.102-.101.102 0 0 .102-.102.102 0 .203.02.248.09.49.204.71.296.245.569.517.814.813 0 .203.102.203.102.304 1.63 1.421 3.768 3.147 6.416 2.132a.102.102 0 0 1-.102-.102c.305-.101 1.12-.304 1.12-.609-2.75.406-4.277-1.624-5.6-3.35 0-.202-.103-.202-.103-.304-.61-.609-.713-1.827-1.018-2.639a.101.101 0 0 1 .102-.101c-.917-2.233-.611-4.67-.917-6.7a1.407 1.407 0 0 0 0-.913c.204 0 0-.305.204-.305-.306-.304 0-.507 0-.812-.051-.608-.051-1.219 0-1.827a.75.75 0 0 0 .102-.913 1.69 1.69 0 0 0 0-1.015c.305-.203.102-.305.203-.61h-.101c0-.1.101-.1.203 0a.608.608 0 0 1-.102-.405c0-.102.102 0 .102-.203.022-.68.09-1.359.204-2.03 0-.203.204-.406-.102-.71 0-.204.204-.305.204-.61-.102 0-.204 0-.204-.101 0-.102.306-.102.306-.203 0-.102-.204 0-.204-.203s.305.101.305-.102c-.203-.203.102-.101-.101-.406.203-.203.203-.71.305-1.015h-.102c0-.101.204-.101.102-.203a.224.224 0 0 1-.204-.203c.102 0 .102.102.306 0-.204-.609.407-.913.102-1.218.102 0 .102-.203.305-.304-.102-.812.408-1.827.306-2.64a.528.528 0 0 0 .203-.405v-.305c.611-1.32.815-2.74 1.324-4.06-.509-.305-1.222-.508-1.63-.812-1.017 0-1.832-.406-2.85 0a.355.355 0 0 1-.102.203c.102.406-.102.507 0 .913-.128.216-.198.46-.204.71a28.077 28.077 0 0 0-4.786 8.73c-.204 0-.102.203-.204.203 0 .203.102.102.102.305-.61 1.522-1.12 3.248-1.63 4.669a3.833 3.833 0 0 0 0-1.523c.205-1.725.612-3.045.714-4.872.102 0 0-.101.203-.101 0-1.523.815-2.64.815-4.06.218-.767.388-1.547.51-2.335-.103-.203-.205-.102-.205-.406-.407 0-.61-.508-1.018-.61-1.12.102-2.036-.304-3.055 0-.102.102-.102.204-.203.305.101 2.741-1.12 5.076-1.732 7.512 0 .101.102.304.102.406 0 .101-.203-.102-.102.101-.305.71-.407 1.523-.713 2.233 0 .812-.509 1.421-.509 2.335-1.018 2.943-1.629 5.988-2.647 8.932-.102.304 0 .609-.306.812-.203-1.015 0-1.624-.203-2.64.203-.608-.306-1.116.101-1.623-.102 0-.102-.102-.102-.203.102-1.015 0-2.132 0-3.147.306-.71-.101-1.42.204-2.03a8.178 8.178 0 0 1 0-2.233.89.89 0 0 1 .102-.71c-.102-1.726.305-3.35.305-5.075.102-.102.102-.305.204-.406-.053-.352.02-.711.204-1.015a2.752 2.752 0 0 1 0-.914c-.306-1.015-1.528-.609-2.444-.71-.713.405-1.12.101-1.528.304-.509-.406-1.934.406-1.12 1.116 0 .102-.102.204 0 .305a6.07 6.07 0 0 1 .102 2.335c-.102 2.03 0 4.77-.102 6.496.085.91.119 1.826.102 2.74 0 .102-.102.203-.102.406.01.38.078.758.204 1.117a42.497 42.497 0 0 0 .61 7.308c.062.582.164 1.158.306 1.726a3.042 3.042 0 0 0 1.528 1.826c.908.219 1.86.184 2.75-.101.916-1.827.814-4.06 1.527-5.887a.374.374 0 0 0-.102-.305 33.401 33.401 0 0 0 1.018-5.38c.102-.1.102-.304.204-.405a5.65 5.65 0 0 1 .611-2.335c.204 2.436.407 4.06.713 6.395 0 .203.102.203.102.304-.204 1.015.305 1.827.509 3.045a.102.102 0 0 1 .102.102c0 .609.712 1.117.814 1.624 1.833-.203 2.139-1.218 2.037-2.233 0-.305-.102-.61-.102-.914 0-.304.102-.406.204-.507a10.523 10.523 0 0 1-.204-1.523c-.102 0-.102-.101-.102-.203.51-2.334 1.222-4.872 1.833-7.105.041-.866.213-1.722.51-2.537-.102 0 0 .101-.102.101s0-.203.101-.101zm7.943-10.354c0-.203.102.203 0 0zm0 .406c0-.203.102.102 0 0zm-2.036 7.816l-.102-.101c.102 0 .204 0 .102.101-.102 0 .102.203 0 0zm-.204 0c.102-.101.204.203 0 0zm-.305.305c.101-.102-.102.203 0 0zm.101 1.928c-.101-.101.102-.203 0-.203 0-.203.204.203 0 .203zm.102 1.218c0-.203.102.203 0 0zm-.814 8.12c0-.203.203.102 0 0zm-13.951 5.482c0-.204.101.101 0 0zm18.839-12.282c-1.222.812-1.935 2.131-3.055 2.943 0 .102.101.203 0 .203l-.102-.101v.203c-.102 0-.102 0-.204.101-.117.326-.33.609-.61.812 0 0 0 .203-.103.203-.509.406-.814 1.015-1.324 1.421 0 .203-.203.203-.203.406-2.037 1.827-3.463 3.959-5.397 5.786-.204.102-.204.203-.408.305 0 0 0 .202-.101.202-.306.102-.408.407-.611.61v.203c-.306.203-.611.304-.51.812-.102.101-.203.101-.305.203.102.304-.407.304-.204.608-.407.305-.916.711-.815 1.219a.193.193 0 0 0-.305 0c0 .203.102.101.102.203a.774.774 0 0 0-.407.203c0 .101-.102.101 0 .203-.51.203-.51.71-.917 1.015-.306.71-.916 1.218-1.222 1.928a.102.102 0 0 1 .102.102c-.204.304-.408.304-.408.71-.305.102-.203.508-.509.61.102.507-.61.405-.509 1.014a.631.631 0 0 0-.407.61c0 .1.102-.102.102.1 0 .204-.102.204-.204.305-.102-.203.102-.203 0-.304a4.31 4.31 0 0 0-1.018 1.725.906.906 0 0 0-.51.812c-.203.102-.305.305-.407.406.306.203-.102.812-.509.914-.102.203-.102.507-.305.507 0 .102.203 0 .101.203-.101.203-.305.203-.509.305-.509 1.116-1.222 2.233-1.731 3.35-.204.1-.102.304-.102.405-.407 0-.305.305-.407.406-.102.102.102.102.102.305s-.204 0-.306 0v.304c-.815.914-1.12 2.233-1.833 3.35 0 .102.102 0 .102.203h-.204c.102.304-.305.304-.203.609-.713.609-.815 1.624-1.324 2.335 0 .101.102.101.102.203-.204 0-.102.304-.408.406v.304a6.59 6.59 0 0 0-.916.812c.102.406-.204.61-.306 1.015h-.102c.102.203-.101.406-.203.508-.02.28-.088.555-.204.812-.102-.61.102-1.624-.203-1.827.203-2.132-.306-3.756-.408-5.989a.101.101 0 0 1 .102-.102c-.306-1.218-.204-3.045-.611-4.364a18.308 18.308 0 0 0-.306-2.335 3.114 3.114 0 0 0-.101-1.015.223.223 0 0 1 .203-.203h-.203c0-.101-.102-.203-.204-.304a8.698 8.698 0 0 0-.102-1.624c-.509-2.03-.305-5.278-3.055-5.075a2.25 2.25 0 0 0-.815-.102 8.863 8.863 0 0 1-2.342.102c-.712.203-.916.71-.916 1.42.195.237.335.515.407.813.102 0 .102.101.204.101a.315.315 0 0 0-.102.203c.216.127.462.197.713.203 0 .102 0 .102.102.203.102.102.203 0 .305-.101a8.98 8.98 0 0 1 .51 2.436 94.916 94.916 0 0 1 1.934 14.312c.306 1.928.306 4.161.51 6.394.203 2.233.407 4.77.712 7.207 0 .507-.204.812-.204 1.32l-.305.304c.102.609.407.71.51 1.32.203 0 .305.203.407.405h.712c.815-.609 2.24-.71 2.852-1.32.045-.75.147-1.497.305-2.232-.204-.203 0-.71.102-.914a4.933 4.933 0 0 1 .102-1.218.355.355 0 0 0-.102-.203c.51-.609.407-1.42.713-2.131 0-.508.305-.812.407-1.32.306-.101.204-.609.51-.71.101-.508.407-.812.407-1.32.203-.101.203-.304.305-.406 0-.71.611-1.116.611-1.928.102-.102.204 0 .204-.102v-.71h.204v-.203c.203-.102.203-.305.305-.508-.102-.406.407-.812.306-1.116.203 0 .101-.203.101-.406h.204c0-.406.51-.61.306-1.015.61-.61.712-1.523 1.12-2.233-.102 0-.102-.203 0-.203.305.101.203-.407.509-.61-.102-.101-.102-.304-.204-.405.306-.508.815-.813.611-1.421a.815.815 0 0 0 .611-.914.793.793 0 0 0 .408-.406c-.102-.508.203-.71.101-1.218.277-.418.516-.86.713-1.32.102-.101.204 0 .306-.203.101-.203-.102 0-.102-.101a9.26 9.26 0 0 1 .815-1.32.718.718 0 0 1 .305-.609c-.102 0-.102 0-.102-.101.284-.226.467-.554.51-.914a8.286 8.286 0 0 0 1.221-2.03v-.304c.102-.102.204-.305.102-.406.306-.102.204-.406.51-.406 0-.406.407-.406.305-.914a.681.681 0 0 0 .407-.71c.102 0 .102 0 .204-.102.102-.609.713-.812.815-1.42h.101c0-.305.102-.711.408-.813-.102-.304.203-.406.203-.609.306-.101.204-.507.611-.507-.102-.203.102-.305 0-.508.102 0 .204-.101.306-.101a.77.77 0 0 1 .203-.406.102.102 0 0 1-.101-.102c.61-.304.814-.913 1.12-1.42a.101.101 0 0 0 .102.1c.17-.35.414-.661.713-.913.101-.203.509-.609.509-.812.203 0 .407-.203.305-.406v-.101h.204c-.102-.305.203-.305.102-.407.101 0 .203-.101.305-.101a3.41 3.41 0 0 1 1.018-1.624c.102 0 .204.203.204 0-.102 0 0-.203-.102-.203.408-.304.306-1.015.815-1.117 0-.101-.102-.101 0-.203a.101.101 0 0 0 .102.102c-.102-.305.203-.305.102-.61.101-.1.101.102.203.102.113-.301.33-.553.611-.71.102-.61.917-.812.815-1.421.305 0 .204-.406.51-.406V21.6a36.39 36.39 0 0 0 2.545-3.35c.416-.335.762-.749 1.018-1.218-.102-.101-.102-.101.102-.203 0 0-.102.102 0 .102.815-1.015 1.426-1.827 2.139-2.64zm-7.23 9.236c0-.101.101.203 0 0zm-1.019 1.624c.102-.203.102.102 0 0zM52.138 45.86c.204.101-.203.101 0 0zm.51 5.481v-.102c.101-.101.203.203 0 .102zm-.204 1.015c0-.203 0-.304.204-.304-.102.101-.102.304-.204.304zm-1.63 3.451c-.101 0 .102-.203.102-.101a.1.1 0 0 1-.03.071.102.102 0 0 1-.071.03zM61.1 35.607c.102.102 0-.203 0 0zm5.499 2.03c0 .102 0 .203-.102.203-1.528-.304-2.851.914-3.768 1.929 0 .304-.203.406-.203.609 0 .71.407 1.015.509 1.725.102.102.102.203.305.305l.407-.102a.526.526 0 0 0 .204.406c0-.203 0-.203.102-.304a13.917 13.917 0 0 1 2.037-2.64c.101.102.305-.1.407-.1.916 0 1.324 1.116 2.648.811.61-.913 1.527-1.42 2.036-2.436.204-.203.204-.507.611-.812.102-.406.408-.71.408-1.116a5.967 5.967 0 0 1-2.444 1.725c-.306-.101-.408.102-.917.203a3.43 3.43 0 0 1-2.24-.406zM65.58 62.1c.102-.203.102-.406.204-.609.306-.304.204-.71.51-1.015-.103-.507.407-1.015.508-1.522v-.203c0-.203.204-.305.306-.61.141-.53.346-1.04.61-1.522.103-.101.103-.203.205-.203a7.682 7.682 0 0 1 .61-1.624c0 2.436-.203 5.278 1.12 7.511.103.102-.101.102 0 .203.121.188.3.33.51.406 0 .102-.102.102-.102.203a2.163 2.163 0 0 0 1.935.203c.464-.227.94-.43 1.426-.609 1.323-1.42 1.833-3.35 2.75-5.075.1-.71.61-1.218.712-1.928.407-.508.305-1.218.713-1.827 0-.71.509-1.117.509-1.828.204-.304.204-.71.51-.913.203-1.117.814-2.132.916-3.045.101 0 .101-.102 0-.203.101 0 .101 0 .101-.102.102-.609.51-1.116.306-1.827-.815 1.929-1.731 3.858-2.648 5.786a64.892 64.892 0 0 1-3.462 8.73 3.987 3.987 0 0 1-1.528 1.319.613.613 0 0 0-.407.101c-.51-.507-.102-1.522-.407-2.233h.203c-.101-.304 0-.507-.101-.71a.456.456 0 0 0 0-.508 1.114 1.114 0 0 0 0-.812 1.407 1.407 0 0 0 0-.913c.16-.494.262-1.005.305-1.523a.375.375 0 0 0-.102-.304.456.456 0 0 0 0-.508c.204-.203.102-.406.102-.71.102-.102.102-.203.204-.305 0-.304-.102-.406.102-.507-.102-1.117.509-1.828.305-2.944.216-.44.287-.938.204-1.421 0-.101.203-.203.305-.305-.102-.406.204-.609.102-1.015.407-.609.306-1.42.611-1.928a2.16 2.16 0 0 1-.713-1.218s-.102.101-.102 0v-.203c-.305-.305-.712-.406-.916-1.015-.51-.102-.713-.61-1.324-.406a.791.791 0 0 0-.204.812c-.101.101-.101.304-.203.406-.102 1.42-.713 2.639-.815 4.161-.204 0 0 .102-.204.203.102-.101.102.102.102.203-.102.407-.102.813-.407 1.016a1.012 1.012 0 0 1-.407.913c-1.019 2.944-1.833 6.09-3.463 8.628.102.101-.102.203-.102.304a.224.224 0 0 0-.203.203l.102.102a7.757 7.757 0 0 1-1.731 2.334 2.388 2.388 0 0 1 .101-1.218c-.102-.507.102-1.015 0-1.725.152-1.703.39-3.397.713-5.075a.607.607 0 0 0-.102-.406.102.102 0 0 0 .102-.102c0-1.117.51-2.233.51-3.147.254-.278.399-.638.407-1.015.239-.326.38-.713.407-1.116.188-.12.331-.299.407-.508a4.236 4.236 0 0 0-.407-1.015c-1.426-.101-2.75-.406-3.972-.406a3.6 3.6 0 0 0-.407.914c0 .101.102.203.102.304a8.676 8.676 0 0 0-.305 1.726c-.102.507-.306 1.218-.408 1.827v.508c-.102.812-.102 1.725-.203 2.639-.018.68-.086 1.359-.204 2.03.02.644-.015 1.29-.102 1.928-.051.88-.051 1.76 0 2.64l-.102.1c0 .305.407.711.102.914.184.666.32 1.345.407 2.03a2.92 2.92 0 0 0 2.027 1.191 2.933 2.933 0 0 0 2.25-.683c.336-.347.642-.72.917-1.117 0-.203-.204-.101-.102-.304a.56.56 0 0 0 .305-.508z" fill="#fff"/>
  </g>
  <defs>
    <clipPath id="clip0">
      <path fill="#fff" d="M0 0h80v75H0z"/>
    </clipPath>
  </defs>
</svg>
