<svg id="Layer_1" data-name="Layer 1" xmlns="http://www.w3.org/2000/svg" viewBox="0 0 78.56 73.89"><title>namvu_only_logo</title><path id="graphic_designer" data-name="graphic designer" d="M21.4,58.8c-.2-.1,0-.6,0-.8-.1,0-.1-.1-.1-.2a6.89,6.89,0,0,1,.1-2c0-.1-.2-.1-.1-.2h.1a.52.52,0,0,0-.2-.4h.2a2.77,2.77,0,0,0,0-1.8c.1-.2.4-.6,0-.8.2-.1.2-.3.1-.5.1,0,.1-.2.2-.1-.2-.7,0-.9,0-1.6,0-.1.1-.1.2-.1-.1-.2-.2-.5,0-.7,0-.6-.2-1.1.2-1.6-.1-.6.2-1.2,0-1.7h.1c-.2-.9.6-1.9,0-2.8.1,0,.1-.1.2-.1s-.1-.1-.1-.2a2.14,2.14,0,0,0,.1-1.4,9,9,0,0,0,.2-2.3c.1-.1,0-.2.2-.2,0-.1-.1-.1-.1-.2.2,0,.1-.2.3-.2-.2-.5.4-1,.1-1.5.2-.1-.1-.4.2-.6-.1,0,0-.2-.1-.2a1.76,1.76,0,0,0,.2-1.4c.4-.4.3-1,.5-1.4-.2-.5.2-1-.1-1.3.1-.4.4-.7.2-1.1a2.88,2.88,0,0,0,.3-1.6,1.88,1.88,0,0,0,.2-1.5,1.09,1.09,0,0,0,.2-1.1c.3-.4.2-1,.5-1.5,0-.1-.1-.1-.1-.2.4-.8.4-1.7.8-2.5,0-.1,0-.1-.1-.2.1,0,.1-.1.2-.1-.2-.8.5-1.6.4-2.5.1-.1.1-.2.2-.2s0-.2.1-.2c-.1-.2,0-.2,0-.4a.78.78,0,0,0,.2-.8c.2-.3.2-.8.5-1.1.1-.1,0,0,0-.2a.35.35,0,0,0,.1-.5c.2-.5.5-.8.4-1.4.1,0,.1-.1.2-.1a12.91,12.91,0,0,1,.5-2.1c.6-.7.5-1.8.6-2.8-.2-.4-.2-.7-.4-1.1a5.72,5.72,0,0,0-.7-.8c-.2.1-.2-.2-.5-.1l-.3-.3c-1.2-.3-2-1.2-3.4-.7a14,14,0,0,0-1.6,1,2.7,2.7,0,0,1-.8.7v.1a19,19,0,0,0-3.1,3.9c-.1,0-.1.1-.2.1-.5.9-1,1.9-1.6,2.8,0,.1-.1.1,0,.2-.4.3-.2,1.1-.7,1.3-.3.6-.8,1.1-1.1,1.7-1,1-1.3,2.3-2.2,3.4.1.1,0,.1,0,.2a1.38,1.38,0,0,0-.3.4c0,.2-.2.3-.2.5A36.23,36.23,0,0,0,9.7,28c.1.1,0,.1,0,.2a7.22,7.22,0,0,0-.9,2c-.3.4-.4.8-.7,1.2v.2a4.13,4.13,0,0,0-.7,1.5c-.2,0-.1.4-.3.3,0-.3.3-.6.2-.8,0,.1-.1-.2-.2-.1.2-.3,0-.8.3-1.1-.1,0-.1,0-.2-.1h0a10.86,10.86,0,0,1,.4-2.5h.2c0-.1-.1-.2-.2-.3.1-.3.3-.4.1-.8a1.16,1.16,0,0,0,.2-1c0-.1.3-.1.2-.2a.31.31,0,0,1-.2-.1c.2-.3.2-.5,0-1,.3-.2.1-.7.4-.9-.1,0-.2-.1-.1-.2a.37.37,0,0,0,.3-.1c-.1-.4-.2-.8.1-1.1-.1-.3,0-.5.3-.5-.1-.4-.3-.8.1-.9.1-.9-.8-1.2-1.3-1.5-.1.2-.6,0-.8-.2-.4.1-.8-.1-1,.2-.6,0-1,.3-1.5,0-1,.1-1.8-.6-2.5,0a2.53,2.53,0,0,0-.2,1.7c.3.1.3.3.2.6a.22.22,0,0,1,.2.2,24.25,24.25,0,0,0-.2,4H1.8a15.15,15.15,0,0,1-.2,3.1c.2.3-.1,1.2,0,1.8-.1,0-.2,0-.2.1s.1.1.2.1c-.2.7.1,1.3-.3,1.9h.1c-.2.5.1,1.2-.1,1.9.8.6.5.9.7,1.4-.1.1-.3.1-.3.2s.2,0,.2.1-.2,0-.2.1.1.1.2.1c-.3,1.8,0,4.2-.3,6,0,.1.1.2.1.3-.1.4.2,1.4-.2,1.8,0,.1.2.1.1.2s0,.2-.2.2c0,.2.3-.1.3.1s-.3.5,0,.8c0,.1-.1.2-.1.4a5.38,5.38,0,0,1,0,2.2c.1,2.5,0,5.1.1,7.2a2.44,2.44,0,0,0,0,1.2c-.4.6.1,1.6-.2,2.2.2.1,0,.4,0,.5s.1.2.1.4a1.7,1.7,0,0,0,0,1,2.23,2.23,0,0,0,0,1.4A3,3,0,0,0,2,65.2c1,.6,2.1.5,2.9.8.2-.1.6.1,1,0,.6-.1.7-.6.9-1.1a.6.6,0,0,1-.1-.4c-.3-.6-.1-1.4-.4-2.1,0-1.9-.6-4.4,0-6.4-.1-.5.2-.8.1-1.4.2-.3-.1-.6,0-.9-.1-.3,0-.3-.1-.5.1-.1,0-.4.2-.5-.1-.2-.2-.4,0-.5a1.33,1.33,0,0,1,.1-1.1,4.3,4.3,0,0,0,0-1.6c0-.1.2,0,.1-.2V49c.3-1.1-.1-2.7.2-3.6.1,0,.2,0,.2-.1s-.1,0-.2-.1h0c.2-.2,0-.6.3-.8-.2-.4.3-.7.2-1.2.1-.2.1-.4.4-.5-.1-.2.1-.3,0-.5.1-.1.1-.2.2-.2H7.8c.5-.8.5-1.9,1-2.7.3-1.4,1-2.6,1.4-3.9.1-.1.1-.3.3-.3a3,3,0,0,1,.8-1.8l-.1-.3c.1,0,.1-.1.2-.1a14.16,14.16,0,0,1,.7-2.2h.2c0-.5.4-.8.4-1.3.4-.5.5-1.2,1-1.7a5.58,5.58,0,0,1,.9-2.1c.1,0,.1-.2.2-.1a5.64,5.64,0,0,1,1.3-2.4,6.66,6.66,0,0,1,1.2-2c.2-.9,1-1.6,1.2-2.5.1,0,.1-.1.2-.1a4.06,4.06,0,0,1,1.5-2.3c.1-.1.1-.3.2-.4.5-.3.9-1,1.6-1.3.2-.5.7-.7,1.1-1.1a1.21,1.21,0,0,1,.7-.7c-.3,1.2-.7,2.3-.9,3.5-.1,0-.2,0-.2.1s-.1.5-.2.8c.1.4-.1.6-.2.9,0,.8-.4,1.7-.5,2.7h-.1c.1.4-.2.6,0,.8-.4.6-.3,1.5-.6,2.2,0,.1,0,.1.1.3a2.23,2.23,0,0,0-.3,1.4c-.3.9-.4,2-.7,3a.1.1,0,0,1,.1.1c-.1,0-.1.2,0,.2-.4.5-.2,1-.2,1.6a.74.74,0,0,0-.1.9c-.1.3-.4.6-.2,1-.2.1-.2.5-.1.5h-.1a25.34,25.34,0,0,0-.3,3c-.1.1-.1.2-.2.3.2.4-.3.7-.1,1l-.1.2c.1.9-.3,2-.2,2.9-.2.2-.1.5-.1.9h-.1c0,1.4-.3,3.3-.4,5.1l-.2.2a1.35,1.35,0,0,1,0,.9c0,.1.1.1.1.3-.2,2.2-.3,4.4-.4,6.4-.1.1-.1.3-.2.4a9.91,9.91,0,0,0,.2,1.8h-.1c0,1,.1,2.2,0,3.3.3.4,0,1.3.3,1.9-.1.1,0,.2-.1.2a1.18,1.18,0,0,1,.1,1,15.17,15.17,0,0,1,.3,2.1l-.1.1a4.2,4.2,0,0,1,.3,1.4,9.36,9.36,0,0,1,.4,1.6c0,.1-.1.2-.1.3s.1.2.2.4a19.45,19.45,0,0,0,.8,2.2s-.1.2,0,.2,0-.1.1-.1h0c.1.4.3.6.3,1,.2.1.2.2.4.3,0,.1-.1.1,0,.2h.2c-.2,0,0,.1,0,.2a.35.35,0,0,1,.2.1,7.6,7.6,0,0,0,3.6,2,6.75,6.75,0,0,1,1.4.2v-.2c0,.2.2,0,.1.2A4.88,4.88,0,0,0,29.7,73h.2a23.28,23.28,0,0,0,1.9-2.3,9.13,9.13,0,0,0,.8-1.3,5.17,5.17,0,0,0,1.2-1.8c.5-.3.5-1.2,1.1-1.5.1-.5.5-.7.5-1.3.3-.1.1-.6.5-.8,0-.1,0-.2-.1-.2.3-.1.2-.4.5-.5,0-.2,0-.2-.1-.3.2.1.1,0,.3-.1s-.1-.1-.1-.3c.2-.1,0-.3.3-.3-.2-.3.1-.5.1-.7h.1c.1-.1-.1-.3,0-.3h.2c-.1-.7.6-.8.4-1.4.2-.2.5-.4.3-.7.3-.1.3-.5.5-.7-.1-.1-.2.1-.2,0h0l.6-.6c0-.4,0-.4.2-.6-.1-.1-.3,0-.3-.3a.37.37,0,0,1,.3.1.22.22,0,0,1,.2-.2c0-.1-.1,0-.1-.2a.35.35,0,0,0,.2.1c0-.1-.1-.1-.1-.2.2,0,.2-.1.3-.2s-.1-.1-.1-.2c.3,0-.1-.3.2-.3V56c.1-.2.4-.3.1-.4q.3-.15.3-.3c-.2,0,0,0,0-.1s-.2.1-.2,0,.2-.1.2,0c.1-.2.2-.2.4-.2v-.1c-.2.1,0-.2,0,0,.2-.3.1-.6.2-.9-.1,0-.2-.1-.1-.2s.1.2.2.1,0-.3,0-.4h.1c-.1-.2.1-.2.1-.3a.14.14,0,0,0-.2,0c.1-.2.3-.1.4-.3-.3-.5.2-1,.4-1.4h0c.1-.1-.1-.3.2-.3-.1-.2,0-.3-.1-.4.1,0,.1-.1.3-.1s-.2-.2,0-.2a2,2,0,0,0,.6-1.5c.1,0,0,.2.2.1a1.85,1.85,0,0,1,.2-.7c-.2.1-.1-.1,0-.1v.1a.45.45,0,0,0,0-.5c.2,0,.3-.3.2-.5.3-.1.2-.5.4-.6,0-.6.4-1,.4-1.6.1,0,.1-.1.2-.1,0-.5.5-.8.4-1.4.2,0,0-.2.2-.2-.1-.4.4-.8.3-1.4.3-.3.2-.9.5-1.4-.6-.7-.4-.8-.4-1l-2.7,5.1h-.1c.1.4-.4.5-.2.9-.8,1.3-1.4,2.8-2.3,4,0,.1.1.1.1.2h-.1a8.18,8.18,0,0,0-.9,1.9h-.1c.1.2-.1.1-.1.2a.1.1,0,0,1,.1.1,1.67,1.67,0,0,0-.7,1.3,1.37,1.37,0,0,0-.5.8c-.3-.1-.1.4-.3.6s-.1-.1-.2,0a4.35,4.35,0,0,0-.4.7c0,.1.2.1.1.2h-.2c-.4,1.1-1.3,1.9-1.7,3h-.1a79.22,79.22,0,0,1-4.6,6.7c-.4.4-.8,1-1.3,1.2a.75.75,0,0,1-.5.7,10.71,10.71,0,0,1-3,3,1.68,1.68,0,0,1-1.1.6c-.2-.2-.3-.5-.5-.7a12.46,12.46,0,0,1-1.2-4c0-.1-.2-.1-.1-.2a.37.37,0,0,0,.1-.3.1.1,0,0,1-.1-.1h0c.1-.2-.1-.5-.2-.6.2-.2-.1-.3,0-.6a1.71,1.71,0,0,1-.1-1.2c-.4-.7.1-1.6-.3-2.4.2-.5-.1-1-.1-1.5-.1-.1-.2.2-.3-.1.1,0,.2-.1.3,0C21.1,59,21.5,59,21.4,58.8ZM28.8,9.2h0C28.8,9,28.9,9.4,28.8,9.2ZM21.4,24.1h0l.1-.1-.1.1Zm-14,9.3h0c.1,0,.1.2,0,0Zm16.9-4.1c.1.1,0,.1,0,0Zm-1.1,3.3Zm.5.2h0c0-.2.1.2,0,0Zm-.2,1.6Zm-.2.6h0l.1-.1c-.1,0-.1,0-.1.1Zm-.1,1.4Zm-.3,1.3v-.1c.1-.1.1.2,0,.1Zm-2.8,1.7c0,.1-.1.1,0,0Zm2.1,0h0c.1-.1,0,.1,0,0Zm-1.6,3.1h0c0-.2.1.2,0,0Zm-1.3.5c-.2.1-.1-.2,0,0Zm2.1,1h0c0-.2.1.2,0,0Zm-2.1.8c0,.1-.1,0-.1,0S19.3,44.9,19.3,44.8Zm.5,0h0c.1-.3.2.1,0,0Zm-.8.7v-.4h.2c.1.3,0,.3,0,.4,0-.1-.1-.1-.2,0Zm2.4-.8h0c.1-.2.1.1,0,0Zm-2.6,1.4c0-.2.2-.6.4-.3,0,.2-.1.3-.3.4l-.1-.1Zm.7.4c-.1-.1,0-.2.1-.3,0,.1.1.2-.1.3Zm-.7.6a1.09,1.09,0,0,0,.1-.5c.2.1.2.3.3,0,.2.5-.1,1,0,1.6-.2.1.1.4-.3.4a5,5,0,0,0-.2-1.2c.4,0-.2-.2.2-.2.1-.2,0-.2-.1-.1Zm3.3-1.3Zm-2.7,1.1Zm.2.1Zm2.3-.3Zm0,.3Zm-2.1.6c0,.1-.2.2-.2,0Zm-1,.3Zm25.6-6.5ZM19.3,48Zm2.7-.7c0,.1-.1.1,0,0Zm-1.8.9Zm.1.2Zm1.1-.2h0c0-.2.1.2,0,0Zm-2.5,1.3H19a.78.78,0,0,1-.3.7c.2.1,0,.3-.1.4s-.2-.1-.3-.1c.2-.2.3-.7.6-.8h-.2c-.1-.3.1-.2,0-.4.2-.1.3-.3.2-.4.1,0,.1.2.2.1C19,49.2,19,49.4,18.9,49.5Zm1.4-1Zm1.5-.3Zm-2.5.7Zm1.5-.2c0,.1-.1.1,0,0Zm.9-.1Zm-.2.5h0l.1-.1-.1.1Zm-1.4.9Zm-.7.7Zm-1.1.9c0-.2.1-.2,0-.4l.2-.1C18.6,51.4,18.5,51.5,18.3,51.6Zm2.9.3c0,.1-.1.1-.2.1.1,0,.1-.1.2-.1Zm-2.3.7Zm1.8-.1Zm-.4.1c0,.1-.1.1,0,0-.1.1-.1,0,0,0Zm.9.1h0c0-.2.1.2,0,0Zm-1.2.6h0l.1-.1-.1.1Zm-.9.3h0c0-.1.2.2,0,0Zm2.4-.6h0c.1-.1,0,.2,0,0Zm-1.6,1.1h0c.2,0-.2.3,0,0Zm1.5-.3h0c0-.2.1.2,0,0Zm-1.9.6Zm1.9-.5Zm-2.1.8h0l.1-.1-.1.1Zm2.2-.6c0,.1-.1.1,0,0Zm-2.3.8h0c0-.2.1.2,0,0Zm1.8-.3h0c0-.2.1.1,0,0Zm-.2.1Zm-1.4.3Zm1.8-.4h0l.1-.1-.1.1Zm-.5.1Zm-1.6.5c0,.1-.1.1,0,0-.1.1-.1,0,0,0Zm.2,0Zm-.2.1Zm-2,.8Zm22.7-5.8Zm1.4-.4Zm-1.8.6h0c0-.1.1.2,0,0Zm1.6-.4ZM21.2,55.2Zm19.9-5Zm-20,5.1Zm-1.6.5ZM41,50.4ZM20.3,55.7h0C20.4,55.6,20.3,55.9,20.3,55.7Zm20.6-5ZM19.1,56.3Zm-.5.2h0c0-.2.1.1,0,0Zm1.1-.3Zm.8.1h0c0-.2.1.1,0,0Zm20.2-5.1h0C40.7,51,40.8,51.4,40.7,51.2Zm-.5.2Zm-19,5.2c-.1,0,0-.1,0-.2s-.1.1,0,.2Zm19.2-5c.1.1,0,.1,0,0ZM21.2,56.8Zm-2.8,1h0c0-.1.1.2,0,0Zm2.6-.7Zm19-4.8h0c0-.1.1.2,0,0Zm-1.7.5ZM20.1,57.5Zm20.4-5.1Zm-2.5.7h0c0-.2.1.1,0,0ZM21.1,57.5l-.1-.1c.1,0,.1,0,.1.1Zm-1,.2h0c0-.2.1.2,0,0Zm19.8-4.9Zm-20,5.1Zm17.9-4.5Zm2.4-.5c0,.1-.1.1,0,0ZM19.9,58.3h0C19.9,58.1,20,58.5,19.9,58.3Zm-.9.5c-.1,0-.1,0-.2-.1h0c.1,0,.2,0,.2.1Zm1.9-.2Zm.2.1Zm-1.3.4ZM39.9,54h0c0-.2.1.2,0,0ZM21.2,59.1c-.1,0,0-.1,0-.2.2,0,0,.1,0,.2Zm15.6-4ZM21.3,59.7Zm-.8.4h0C20.6,59.9,20.6,60.2,20.5,60.1Zm-1.3.4h0C19.2,60.3,19.3,60.6,19.2,60.5Zm1.9-.4h0c0-.2.1.2,0,0Zm15.3-3.8Zm-15,4a.35.35,0,0,0-.2-.1C21.3,60.2,21.5,60.2,21.4,60.3ZM38.7,56h0c.1,0,.1.1,0,0ZM21.4,60.6Zm0,.4h0c0-.2.1.2,0,0Zm-.5.3Zm-2,.9h0c0-.2.1.2,0,0Zm2.2-.2h0c0-.2.1.2,0,0Zm0,.6h0c.1-.2.1.1,0,0Zm-1.7.5Zm1.8.2h0l.1-.1-.1.1Zm-3.5,1Zm19.4-4.8c-.1,0-.1,0-.1-.1h0c.1,0,.1,0,.1.1Zm-.3.7Zm-15,5.3h0c0-.2.1.2,0,0Zm14.3-3.6h0c0-.2.1.2,0,0Zm.1,0h0c0-.2.1.1,0,0ZM21.5,66.1Zm14.2-3ZM34.6,65ZM19.4,70.3Zm13.9-2.9-.1-.1c.1,0,.2,0,.1.1ZM20.7,72.1Zm.3.2h0c.1-.3.2.1,0,0Zm1.2.6c-.3.1-.7-.2-.9-.6.2,0,.2.2.3.1.1.4.6.3.6.5Zm6.6-.3h0c0-.2.1.2,0,0Zm.4,0Zm-1.9,1Zm-.1.2h0l.1-.1c0,.1,0,.1-.1.1ZM7.6,33Zm10.5,6.7h0c.1.1,0-.2,0,0ZM45,39.6h0c.2,0-.1-.2,0,0Zm0,0ZM18.9,49.5Zm-1.8,1.7ZM41.3,50ZM21.4,56.4Zm0,2.4h0c.2,0-.1-.1,0,0Zm17.7-3.2c0,.1-.1.1,0,0Zm-2,4.6Zm-.2.2Zm0,.2h0v.1H37v-.1Zm-.1.2h0c.1.1,0-.2,0,0Zm-.1.1h0c0,.2.2.1.1,0Zm7.4-47.7a2.6,2.6,0,0,0-.4,1.5c0,.1-.2.1-.2.3a26.6,26.6,0,0,1-.3,2.8c0,.2-.3.3-.2.6.3.9-.3,1.5-.1,2.5,0,.2-.1.1-.1.3a9.92,9.92,0,0,1-4,6.8c-2.5,1.4-3.3-2.3-3-4.1l-.1-.4c.2-.2,0-.7.3-.9a18.32,18.32,0,0,1,.2-2.1c.3-.3.2-.7.2-1.1a.66.66,0,0,0,.2-.7c.1-.1.3-.1.2-.2a4.22,4.22,0,0,0,.3-1.2c.6-.7.6-1.7,1.3-2.4,0-.4.3-.6.4-.9.7-.7.9-1.7,1.8-2.3.1-.5.6-.7.8-1.1a3.92,3.92,0,0,0,1-.8,1.07,1.07,0,0,1,.6-.2c.2,0,.3.1.5,0q.9-.15.9-.9c-.2-.8-1-.6-1.3-1.3-1-.4-1.7-1.3-2.8-1.5-.8,0-.9.9-1.7,1.3-2.5,3.8-4.9,7.7-6.1,12.3a12.35,12.35,0,0,0-.3,5.5c.1.2-.1.1-.1.3.8,2.9,1.6,5.5,3.8,6.1a7.18,7.18,0,0,1,2.5-.1c0-.1-.2-.2-.1-.3.5,0,.8-.5,1.3-.5a18.26,18.26,0,0,1,1.6-1.3c.4-.8,1.1-1.6,1.6-2.4.1.4.2.7.3,1.1a5.79,5.79,0,0,0,3.1,2,5.28,5.28,0,0,0,2.3-1.4c1.9-3.7,2.8-7.9,4.1-11.9a10.9,10.9,0,0,1,.4-2.2,22.55,22.55,0,0,0,0-2.6,6.53,6.53,0,0,0-.5,2c-.8,2.3-1.5,4.6-2.2,6.9s-1.3,4.7-3.2,6.4c-.1-.1-.4,0-.5,0-.1-.2-.2-.5-.3-.7a22.37,22.37,0,0,1,.4-5.8c.1-1.9.4-3.3.5-5.3.7-.9-.4-1.4-1-1.7a6.11,6.11,0,0,0-1.4-.7C44.6,13.1,44.3,13.1,44.1,13.2Zm22.2-.9h0a15.17,15.17,0,0,1,2.8-4.8,11.5,11.5,0,0,1-.2,3.2,3.72,3.72,0,0,1-.2,1.8c.1.2.1.2,0,.3.2.2.1.9,0,1.1a5.74,5.74,0,0,1-.1,1.8c.1.4-.2.8.1,1.2a8.58,8.58,0,0,0-.2,2.3.1.1,0,0,0-.1.1c.3,2.2-.1,4.1.4,6.5,0,.1,0,.2-.1.2s.1.1.1.3c-.3,1.2.4,2.9.5,4.1.1.3.3.6.2.9.2.1.3.4.4.8.1.1.2.1.3.3-.2,0-.1.1-.1.3s.1-.1.1,0-.1.1,0,.2a1.85,1.85,0,0,0,.2.7,6,6,0,0,1,.8.8c0,.2.1.2.1.3,1.6,1.4,3.7,3.1,6.3,2.1a.1.1,0,0,1-.1-.1c.3-.1,1.1-.3,1.1-.6-2.7.4-4.2-1.6-5.5-3.3,0-.2-.1-.2-.1-.3-.6-.6-.7-1.8-1-2.6a.1.1,0,0,1,.1-.1c-.9-2.2-.6-4.6-.9-6.6a1.39,1.39,0,0,0,0-.9c.2,0,0-.3.2-.3-.3-.3,0-.5,0-.8a10.82,10.82,0,0,1,0-1.8.74.74,0,0,0,.1-.9,1.67,1.67,0,0,0,0-1c.3-.2.1-.3.2-.6h-.1c0-.1.1-.1.2,0a.6.6,0,0,1-.1-.4c0-.1.1,0,.1-.2a15,15,0,0,1,.2-2c0-.2.2-.4-.1-.7,0-.2.2-.3.2-.6-.1,0-.2,0-.2-.1s.3-.1.3-.2-.2,0-.2-.2.3.1.3-.1c-.2-.2.1-.1-.1-.4.2-.2.2-.7.3-1h-.1c0-.1.2-.1.1-.2a.22.22,0,0,1-.2-.2c.1,0,.1.1.3,0-.2-.6.4-.9.1-1.2.1,0,.1-.2.3-.3-.1-.8.4-1.8.3-2.6a.52.52,0,0,0,.2-.4V5.8c.6-1.3.8-2.7,1.3-4-.5-.3-1.2-.5-1.6-.8-1,0-1.8-.4-2.8,0a.35.35,0,0,1-.1.2c.1.4-.1.5,0,.9a1.45,1.45,0,0,0-.2.7,27.69,27.69,0,0,0-4.7,8.6c-.2,0-.1.2-.2.2,0,.2.1.1.1.3-.6,1.5-1.1,3.2-1.6,4.6a3.79,3.79,0,0,0,0-1.5c.2-1.7.6-3,.7-4.8.1,0,0-.1.2-.1,0-1.5.8-2.6.8-4a18.92,18.92,0,0,0,.5-2.3c-.1-.2-.2-.1-.2-.4-.4,0-.6-.5-1-.6-1.1.1-2-.3-3,0-.1.1-.1.2-.2.3.1,2.7-1.1,5-1.7,7.4,0,.1.1.3.1.4s-.2-.1-.1.1c-.3.7-.4,1.5-.7,2.2,0,.8-.5,1.4-.5,2.3-1,2.9-1.6,5.9-2.6,8.8-.1.3,0,.6-.3.8-.2-1,0-1.6-.2-2.6.2-.6-.3-1.1.1-1.6-.1,0-.1-.1-.1-.2.1-1,0-2.1,0-3.1.3-.7-.1-1.4.2-2a8.09,8.09,0,0,1,0-2.2.88.88,0,0,1,.1-.7c-.1-1.7.3-3.3.3-5,.1-.1.1-.3.2-.4a1.5,1.5,0,0,1,.2-1,2.72,2.72,0,0,1,0-.9c-.3-1-1.5-.6-2.4-.7-.7.4-1.1.1-1.5.3-.5-.4-1.9.4-1.1,1.1,0,.1-.1.2,0,.3a6,6,0,0,1,.1,2.3c-.1,2,0,4.7-.1,6.4a24.37,24.37,0,0,1,.1,2.7c0,.1-.1.2-.1.4a3.59,3.59,0,0,0,.2,1.1,42,42,0,0,0,.6,7.2,12.23,12.23,0,0,0,.3,1.7A3,3,0,0,0,54.1,30a5,5,0,0,0,2.7-.1c.9-1.8.8-4,1.5-5.8a.37.37,0,0,0-.1-.3,33,33,0,0,0,1-5.3c.1-.1.1-.3.2-.4a5.58,5.58,0,0,1,.6-2.3c.2,2.4.4,4,.7,6.3,0,.2.1.2.1.3-.2,1,.3,1.8.5,3a.1.1,0,0,1,.1.1c0,.6.7,1.1.8,1.6,1.8-.2,2.1-1.2,2-2.2,0-.3-.1-.6-.1-.9s.1-.4.2-.5a10.4,10.4,0,0,1-.2-1.5c-.1,0-.1-.1-.1-.2.5-2.3,1.2-4.8,1.8-7a8.5,8.5,0,0,1,.5-2.5c-.1,0,0,.1-.1.1s0-.2.1-.1Zm7-10.5Zm.3,0Zm.5.3h0c0-.2.1.2,0,0Zm0,.4h0c0-.2.1.1,0,0Zm-.1.4ZM73,5ZM68.3,8.4Zm4.2.5Zm-.3.4Zm.1.1Zm-.2.8-.1-.1c.1,0,.2,0,.1.1h0c.1.2-.1,0,0,0Zm-.2,0h0c.1-.1.2.2,0,0Zm-.3.3h0c.1-.1-.1.2,0,0Zm-.2,1Zm.3.9c-.1-.1.1-.2,0-.2,0-.2.2.2,0,.2Zm-.1,1.2Zm.2,0h0c0-.2.1.2,0,0ZM59.2,17.4Zm12.1-2.7ZM71.1,16Zm.4.9Zm-.2.4Zm.1.8Zm-7.3,5.3ZM71,21.6h0c0-.2.2.1,0,0ZM57.3,27h0c0-.2.1.1,0,0Zm-.9,2ZM73,32.8Zm.2,3.1Zm2.6-21Zm0,0c-1.2.8-1.9,2.1-3,2.9,0,.1.1.2,0,.2l-.1-.1v.2c-.1,0-.1,0-.2.1a1.7,1.7,0,0,1-.6.8s0,.2-.1.2c-.5.4-.8,1-1.3,1.4,0,.2-.2.2-.2.4-2,1.8-3.4,3.9-5.3,5.7-.2.1-.2.2-.4.3,0,0,0,.2-.1.2-.3.1-.4.4-.6.6V28c-.3.2-.6.3-.5.8-.1.1-.2.1-.3.2.1.3-.4.3-.2.6-.4.3-.9.7-.8,1.2a.19.19,0,0,0-.3,0c0,.2.1.1.1.2a.76.76,0,0,0-.4.2c0,.1-.1.1,0,.2-.5.2-.5.7-.9,1-.3.7-.9,1.2-1.2,1.9a.1.1,0,0,1,.1.1c-.2.3-.4.3-.4.7-.3.1-.2.5-.5.6.1.5-.6.4-.5,1a.62.62,0,0,0-.4.6c0,.1.1-.1.1.1s-.1.2-.2.3c-.1-.2.1-.2,0-.3a4.25,4.25,0,0,0-1,1.7.89.89,0,0,0-.5.8c-.2.1-.3.3-.4.4.3.2-.1.8-.5.9-.1.2-.1.5-.3.5,0,.1.2,0,.1.2s-.3.2-.5.3c-.5,1.1-1.2,2.2-1.7,3.3h0c-.2.1-.1.3-.1.4-.4,0-.3.3-.4.4s.1.1.1.3-.2,0-.3,0v.3c-.8.9-1.1,2.2-1.8,3.3,0,.1.1,0,.1.2h-.2c.1.3-.3.3-.2.6-.7.6-.8,1.6-1.3,2.3,0,.1.1.1.1.2-.2,0-.1.3-.4.4v.3a6.47,6.47,0,0,0-.9.8c.1.4-.2.6-.3,1h-.1c.1.2-.1.4-.2.5a2.35,2.35,0,0,1-.2.8c-.1-.6.1-1.6-.2-1.8.2-2.1-.3-3.7-.4-5.9a.1.1,0,0,1,.1-.1c-.3-1.2-.2-3-.6-4.3a18.1,18.1,0,0,0-.3-2.3,3.08,3.08,0,0,0-.1-1,.22.22,0,0,1,.2-.2h-.2c0-.1-.1-.2-.2-.3a8.6,8.6,0,0,0-.1-1.6c-.5-2-.3-5.2-3-5a2.2,2.2,0,0,0-.8-.1,8.68,8.68,0,0,1-2.3.1c-.7.2-.9.7-.9,1.4a2,2,0,0,1,.4.8c.1,0,.1.1.2.1a.31.31,0,0,0-.1.2,1.45,1.45,0,0,0,.7.2c0,.1,0,.1.1.2s.2,0,.3-.1A8.87,8.87,0,0,1,40,40a93.79,93.79,0,0,1,1.9,14.1c.3,1.9.3,4.1.5,6.3s.4,4.7.7,7.1c0,.5-.2.8-.2,1.3l-.3.3c.1.6.4.7.5,1.3.2,0,.3.2.4.4h.7c.8-.6,2.2-.7,2.8-1.3a14.6,14.6,0,0,1,.3-2.2c-.2-.2,0-.7.1-.9a4.87,4.87,0,0,1,.1-1.2.35.35,0,0,0-.1-.2c.5-.6.4-1.4.7-2.1,0-.5.3-.8.4-1.3.3-.1.2-.6.5-.7.1-.5.4-.8.4-1.3.2-.1.2-.3.3-.4,0-.7.6-1.1.6-1.9.1-.1.2,0,.2-.1v-.7h.2v-.2c.2-.1.2-.3.3-.5-.1-.4.4-.8.3-1.1.2,0,.1-.2.1-.4h.2c0-.4.5-.6.3-1,.6-.6.7-1.5,1.1-2.2-.1,0-.1-.2,0-.2.3.1.2-.4.5-.6-.1-.1-.1-.3-.2-.4.3-.5.8-.8.6-1.4a.8.8,0,0,0,.6-.9.78.78,0,0,0,.4-.4c-.1-.5.2-.7.1-1.2a8.26,8.26,0,0,0,.7-1.3c.1-.1.2,0,.3-.2s-.1,0-.1-.1a9.13,9.13,0,0,1,.8-1.3.71.71,0,0,1,.3-.6c-.1,0-.1,0-.1-.1a1.35,1.35,0,0,0,.5-.9,8.17,8.17,0,0,0,1.2-2v-.3c.1-.1.2-.3.1-.4.3-.1.2-.4.5-.4,0-.4.4-.4.3-.9a.67.67,0,0,0,.4-.7c.1,0,.1,0,.2-.1.1-.6.7-.8.8-1.4H61c0-.3.1-.7.4-.8-.1-.3.2-.4.2-.6.3-.1.2-.5.6-.5-.1-.2.1-.3,0-.5.1,0,.2-.1.3-.1a.76.76,0,0,1,.2-.4.1.1,0,0,1-.1-.1c.6-.3.8-.9,1.1-1.4a.1.1,0,0,0,.1.1,2.76,2.76,0,0,1,.7-.9c.1-.2.5-.6.5-.8.2,0,.4-.2.3-.4v-.1h.2c-.1-.3.2-.3.1-.4.1,0,.2-.1.3-.1a3.36,3.36,0,0,1,1-1.6c.1,0,.2.2.2,0-.1,0,0-.2-.1-.2.4-.3.3-1,.8-1.1,0-.1-.1-.1,0-.2a.1.1,0,0,0,.1.1c-.1-.3.2-.3.1-.6.1-.1.1.1.2.1a1.34,1.34,0,0,1,.6-.7c.1-.6.9-.8.8-1.4.3,0,.2-.4.5-.4v-.2a35.85,35.85,0,0,0,2.5-3.3,4,4,0,0,0,1-1.2c-.1-.1-.1-.1.1-.2,0,0-.1.1,0,.1.8-1,1.4-1.8,2.1-2.6Zm-3.9,4.4Zm-1,1.7Zm-2.2,3h0c0-.1.1.2,0,0Zm-.9,1.5Zm-.1.1h0c.1-.2.1.1,0,0Zm0,.2Zm-4.8,7Zm-6,5.4Zm.3,4.5ZM52.5,46h0c.2.1-.2.1,0,0Zm.5,5.4v-.1c.1-.1.2.2,0,.1Zm-.2,1c0-.2,0-.3.2-.3-.1.1-.1.3-.2.3Zm-1.6,3.4c-.1,0,.1-.2.1-.1a.1.1,0,0,1-.1.1ZM61.3,35.9h0c.1.1,0-.2,0,0Zm5.4,2c0,.1,0,.2-.1.2-1.5-.3-2.8.9-3.7,1.9,0,.3-.2.4-.2.6,0,.7.4,1,.5,1.7.1.1.1.2.3.3l.4-.1a.52.52,0,0,0,.2.4c0-.2,0-.2.1-.3a13.71,13.71,0,0,1,2-2.6c.1.1.3-.1.4-.1.9,0,1.3,1.1,2.6.8.6-.9,1.5-1.4,2-2.4.2-.2.2-.5.6-.8.1-.4.4-.7.4-1.1a5.86,5.86,0,0,1-2.4,1.7c-.3-.1-.4.1-.9.2A3.36,3.36,0,0,1,66.7,37.9ZM65.7,62h0c.1-.2.1-.4.2-.6.3-.3.2-.7.5-1-.1-.5.4-1,.5-1.5v-.2c0-.2.2-.3.3-.6a6.71,6.71,0,0,1,.6-1.5c.1-.1.1-.2.2-.2a7.58,7.58,0,0,1,.6-1.6c0,2.4-.2,5.2,1.1,7.4.1.1-.1.1,0,.2a1,1,0,0,0,.5.4c0,.1-.1.1-.1.2a2.12,2.12,0,0,0,1.9.2,14.67,14.67,0,0,1,1.4-.6c1.3-1.4,1.8-3.3,2.7-5,.1-.7.6-1.2.7-1.9.4-.5.3-1.2.7-1.8,0-.7.5-1.1.5-1.8.2-.3.2-.7.5-.9.2-1.1.8-2.1.9-3,.1,0,.1-.1,0-.2.1,0,.1,0,.1-.1.1-.6.5-1.1.3-1.8-.8,1.9-1.7,3.8-2.6,5.7a64.07,64.07,0,0,1-3.4,8.6,3.92,3.92,0,0,1-1.5,1.3.6.6,0,0,0-.4.1c-.5-.5-.1-1.5-.4-2.2h.2c-.1-.3,0-.5-.1-.7a.45.45,0,0,0,0-.5,1.1,1.1,0,0,0,0-.8,1.39,1.39,0,0,0,0-.9,6.64,6.64,0,0,0,.3-1.5.37.37,0,0,0-.1-.3.45.45,0,0,0,0-.5c.2-.2.1-.4.1-.7.1-.1.1-.2.2-.3,0-.3-.1-.4.1-.5-.1-1.1.5-1.8.3-2.9a2.3,2.3,0,0,0,.2-1.4c0-.1.2-.2.3-.3-.1-.4.2-.6.1-1,.4-.6.3-1.4.6-1.9a2.13,2.13,0,0,1-.7-1.2s-.1.1-.1,0V44c-.3-.3-.7-.4-.9-1-.5-.1-.7-.6-1.3-.4a.78.78,0,0,0-.2.8c-.1.1-.1.3-.2.4-.1,1.4-.7,2.6-.8,4.1-.2,0,0,.1-.2.2.1-.1.1.1.1.2-.1.4-.1.8-.4,1a1,1,0,0,1-.4.9c-1,2.9-1.8,6-3.4,8.5.1.1-.1.2-.1.3a.22.22,0,0,0-.2.2l.1.1a7.64,7.64,0,0,1-1.7,2.3,2.36,2.36,0,0,1,.1-1.2c-.1-.5.1-1,0-1.7a49.86,49.86,0,0,1,.7-5,.6.6,0,0,0-.1-.4.1.1,0,0,0,.1-.1c0-1.1.5-2.2.5-3.1a1.53,1.53,0,0,0,.4-1,2.1,2.1,0,0,0,.4-1.1,1,1,0,0,0,.4-.5,4.18,4.18,0,0,0-.4-1c-1.4-.1-2.7-.4-3.9-.4a3.55,3.55,0,0,0-.4.9c0,.1.1.2.1.3a8.58,8.58,0,0,0-.3,1.7c-.1.5-.3,1.2-.4,1.8v.5c-.1.8-.1,1.7-.2,2.6a13.55,13.55,0,0,1-.2,2,11.48,11.48,0,0,1-.1,1.9,22.53,22.53,0,0,0,0,2.6l-.1.1c0,.3.4.7.1.9a14.16,14.16,0,0,1,.4,2,2.87,2.87,0,0,0,4.2.5,8.7,8.7,0,0,0,.9-1.1c0-.2-.2-.1-.1-.3a.55.55,0,0,0,.3-.5Zm6.6-18.3Zm.1,4.4Zm-.3,1.3ZM72,52.7Zm5.7-.1Zm-8.8,7Zm-2.8,1.1Zm5.2-.7ZM60,57.9Z" transform="translate(-1.3 -0.82)"/></svg>